<svg width="77" height="76" viewBox="0 0 77 76" fill="none" xmlns="http://www.w3.org/2000/svg">
<path fill-rule="evenodd" clip-rule="evenodd" d="M76.5 37.9992C76.5 58.9863 59.4875 76 38.4992 76C17.5125 76 0.5 58.9863 0.5 37.9992C0.5 17.0153 17.5125 1.12981e-05 38.4992 1.12981e-05C48.5593 -0.00775823 58.2146 3.992 65.3702 11.1306C72.4843 18.2273 76.4923 27.9019 76.5 37.9992Z" fill="#0057FF"/>
<path fill-rule="evenodd" clip-rule="evenodd" d="M37.4204 61.286C28.5024 60.8633 20.6095 55.3889 17.0894 47.1859C13.5693 38.9812 15.0469 29.4636 20.8819 22.7367C21.4514 22.0825 22.4396 22.0172 23.0891 22.5937C23.1091 22.6108 23.1291 22.6295 23.1476 22.6481L27.1849 26.6852C27.7467 27.2384 27.7928 28.1303 27.2926 28.7394C23.2123 33.6638 22.8459 40.7185 26.3953 46.0468C29.9446 51.383 36.5692 53.7666 42.7044 51.9128C48.838 50.0606 53.0369 44.4075 53.0384 37.9992C53.0292 34.5355 51.7702 31.1931 49.4968 28.598C48.9627 28.0122 48.9627 27.1109 49.4968 26.5251L53.6218 22.4352C54.2082 21.809 55.1871 21.781 55.809 22.3731C55.8305 22.3933 55.8505 22.4135 55.8705 22.4352C62.1504 29.3998 63.6203 39.5142 59.5861 48.0063C55.5535 56.4984 46.8109 61.7351 37.4204 61.2844V61.286Z" fill="white"/>
</svg>
