<svg xmlns="http://www.w3.org/2000/svg" xmlns:xlink="http://www.w3.org/1999/xlink" data-name="Layer 1" viewBox="0 0 1400 1000" id="robot-cleaning-mirror"><defs><linearGradient id="a" x1="451.24" x2="785.6" y1="329.6" y2="329.6" gradientUnits="userSpaceOnUse"><stop offset="0" stop-color="#5559ff" stop-opacity=".3"></stop><stop offset="0" stop-color="#5559fe" stop-opacity=".31"></stop><stop offset=".06" stop-color="#5665ef" stop-opacity=".49"></stop><stop offset=".13" stop-color="#566ee1" stop-opacity=".65"></stop><stop offset=".21" stop-color="#5776d6" stop-opacity=".78"></stop><stop offset=".3" stop-color="#577dcd" stop-opacity=".88"></stop><stop offset=".41" stop-color="#5881c7" stop-opacity=".95"></stop><stop offset=".57" stop-color="#5883c4" stop-opacity=".99"></stop><stop offset="1" stop-color="#5884c3"></stop></linearGradient><linearGradient id="d" x1="451.24" x2="785.6" y1="264.79" y2="264.79" xlink:href="#a"></linearGradient><linearGradient id="e" x1="451.24" x2="785.6" y1="394.41" y2="394.41" xlink:href="#a"></linearGradient><linearGradient id="b" x1="298.85" x2="313.16" y1="378.91" y2="378.91" gradientUnits="userSpaceOnUse"><stop offset="0" stop-color="#5884c3" stop-opacity=".5"></stop><stop offset=".04" stop-color="#5680c0" stop-opacity=".54"></stop><stop offset=".28" stop-color="#4c6fb5" stop-opacity=".74"></stop><stop offset=".51" stop-color="#4562ad" stop-opacity=".89"></stop><stop offset=".75" stop-color="#415aa8" stop-opacity=".97"></stop><stop offset="1" stop-color="#4058a6"></stop></linearGradient><linearGradient id="f" x1="328.17" x2="342.49" y1="375.06" y2="375.06" xlink:href="#b"></linearGradient><linearGradient id="g" x1="357.5" x2="371.81" y1="378.86" y2="378.86" xlink:href="#b"></linearGradient><linearGradient id="h" x1="386.83" x2="401.14" y1="378.82" y2="378.82" xlink:href="#b"></linearGradient><linearGradient id="i" x1="416.15" x2="430.47" y1="375.33" y2="375.33" xlink:href="#b"></linearGradient><linearGradient id="j" x1="235.73" x2="284.92" y1="797.11" y2="797.11" gradientUnits="userSpaceOnUse"><stop offset="0" stop-color="#5884c3"></stop><stop offset=".15" stop-color="#5b86c4" stop-opacity=".98"></stop><stop offset=".29" stop-color="#658ec8" stop-opacity=".92"></stop><stop offset=".43" stop-color="#769ace" stop-opacity=".82"></stop><stop offset=".57" stop-color="#8eacd6" stop-opacity=".68"></stop><stop offset=".72" stop-color="#acc2e1" stop-opacity=".5"></stop><stop offset=".86" stop-color="#d1ddef" stop-opacity=".27"></stop><stop offset=".99" stop-color="#fcfdfe" stop-opacity=".02"></stop><stop offset="1" stop-color="#fff" stop-opacity="0"></stop></linearGradient><linearGradient id="k" x1="235.75" x2="235.75" y1="882.7" y2="801.2" gradientUnits="userSpaceOnUse"><stop offset="0" stop-color="#fff" stop-opacity=".6"></stop><stop offset=".02" stop-color="#f8fafd" stop-opacity=".62"></stop><stop offset=".26" stop-color="#b2c6e3" stop-opacity=".78"></stop><stop offset=".5" stop-color="#80a1d1" stop-opacity=".9"></stop><stop offset=".75" stop-color="#628bc7" stop-opacity=".98"></stop><stop offset="1" stop-color="#5884c3"></stop></linearGradient><linearGradient id="l" x1="592.49" x2="672.84" y1="840.36" y2="787.46" gradientUnits="userSpaceOnUse"><stop offset="0" stop-color="#fff" stop-opacity="0"></stop><stop offset=".01" stop-color="#fcfdfe" stop-opacity=".02"></stop><stop offset=".14" stop-color="#d1ddef" stop-opacity=".27"></stop><stop offset=".28" stop-color="#acc2e1" stop-opacity=".5"></stop><stop offset=".43" stop-color="#8eacd6" stop-opacity=".68"></stop><stop offset=".57" stop-color="#769ace" stop-opacity=".82"></stop><stop offset=".71" stop-color="#658ec8" stop-opacity=".92"></stop><stop offset=".85" stop-color="#5b86c4" stop-opacity=".98"></stop><stop offset="1" stop-color="#5884c3"></stop></linearGradient><linearGradient id="c" x1="3561.32" x2="3785.43" y1="362.15" y2="362.15" gradientTransform="matrix(-1 0 0 1 4750.12 0)" gradientUnits="userSpaceOnUse"><stop offset="0" stop-color="#4058a6"></stop><stop offset=".25" stop-color="#415aa8" stop-opacity=".97"></stop><stop offset=".49" stop-color="#4562ad" stop-opacity=".89"></stop><stop offset=".72" stop-color="#4c6fb5" stop-opacity=".74"></stop><stop offset=".96" stop-color="#5680c0" stop-opacity=".54"></stop><stop offset="1" stop-color="#5884c3" stop-opacity=".5"></stop></linearGradient><linearGradient id="m" x1="971.47" x2="1182.66" y1="361.83" y2="361.83" gradientUnits="userSpaceOnUse"><stop offset="0" stop-color="#f2ba34"></stop><stop offset=".13" stop-color="#f2bb37" stop-opacity=".98"></stop><stop offset=".26" stop-color="#f3be41" stop-opacity=".94"></stop><stop offset=".39" stop-color="#f4c452" stop-opacity=".85"></stop><stop offset=".52" stop-color="#f5cc69" stop-opacity=".74"></stop><stop offset=".64" stop-color="#f7d686" stop-opacity=".59"></stop><stop offset=".77" stop-color="#fae2ab" stop-opacity=".41"></stop><stop offset=".89" stop-color="#fcf1d5" stop-opacity=".21"></stop><stop offset="1" stop-color="#fff" stop-opacity="0"></stop></linearGradient><linearGradient id="n" x1="3577.94" x2="3669.18" y1="390.81" y2="390.81" gradientTransform="matrix(1 0 0 -1 -2497 781.62)" xlink:href="#c"></linearGradient><linearGradient id="o" x1="3577.94" x2="3626.23" y1="413.91" y2="413.91" gradientTransform="matrix(1 0 0 -1 -2454.05 827.82)" xlink:href="#c"></linearGradient><linearGradient id="p" x1="-103.87" x2="-12.64" y1="324.17" y2="324.17" gradientTransform="translate(1089.01)" xlink:href="#c"></linearGradient><linearGradient id="q" x1="-103.87" x2="-55.59" y1="347.27" y2="347.27" gradientTransform="translate(1089.01)" xlink:href="#c"></linearGradient></defs><polygon fill="#f0f3f8" points="1201.92 404.49 888.29 404.49 888.29 187.94 147.53 187.94 147.53 504.75 461.16 504.75 461.16 580.56 287.34 580.56 287.34 847.37 1028.1 847.37 1028.1 721.3 1201.92 721.3 1201.92 404.49"></polygon><rect width="313.51" height="209.52" x="938.96" y="152.63" fill="#f0f3f8"></rect><rect width="51.52" height="296.43" x="177.97" y="550.94" fill="#f0f3f8"></rect><ellipse cx="778.34" cy="495.09" fill="#99aed9" rx="120.06" ry="166.62"></ellipse><ellipse cx="777.13" cy="493.18" fill="#3e5fab" rx="135.63" ry="188.22"></ellipse><path fill="#fff" d="M898.41,493.18c0,88-48.71,160.29-110.77,167.68h0a87.06,87.06,0,0,1-10.5.63c-24.33,0-47-10-66-27.07-3-2.67-5.84-5.51-8.61-8.52-14.78-16-26.81-36.68-34.95-60.41a223,223,0,0,1-11.74-72.31c0-84.61,45-154.64,103.58-166.53a89.08,89.08,0,0,1,17.7-1.78,91,91,0,0,1,37.93,8.39,102.76,102.76,0,0,1,9.89,5.21c24.86,14.81,45.43,40.82,58.4,73.46h0C893,436,898.41,463.72,898.41,493.18Z" opacity=".5"></path><path fill="#fff" d="M815.06 333.26L702.54 625.9c-14.78-16-26.81-36.68-34.95-60.41l91.84-238.84a89.08 89.08 0 0117.7-1.78A91 91 0 01815.06 333.26zM883.35 411.93h0L787.64 660.86h0a87.06 87.06 0 01-10.5.63c-24.33 0-47-10-66-27.07L825 338.47C849.81 353.28 870.38 379.29 883.35 411.93z" opacity=".39"></path><rect width="334.36" height="293.14" x="284.06" y="174.39" fill="#e8ebf6"></rect><polygon fill="#fff" points="509.2 174.39 417.73 467.53 363.78 467.53 455.26 174.39 509.2 174.39" opacity=".43"></polygon><polygon fill="#fff" points="619.18 174.39 527.7 467.53 446.98 467.53 538.46 174.39 619.18 174.39" opacity=".43"></polygon><rect width="334.36" height="9" x="284.05" y="325.1" fill="url(#a)" opacity=".47"></rect><rect width="334.36" height="9" x="284.05" y="260.29" fill="url(#d)" opacity=".47"></rect><rect width="334.36" height="9" x="284.05" y="389.91" fill="url(#e)" opacity=".47"></rect><path fill="#a4b5dd" d="M451.23,174.39V583.44h-.18a12.54,12.54,0,0,1-6.07-1.49c-6.24-3.36-8.24-11.23-17.63-11.23-12,0-12,12.73-23.89,12.73s-11.94-12.73-23.89-12.73-11.94,12.73-23.88,12.73-11.94-12.73-23.88-12.73-11.94,12.73-23.88,12.73S296,570.71,284.05,570.71V174.39Z"></path><g opacity=".47"><path fill="url(#b)" d="M313.16,174.39v408a13.1,13.1,0,0,1-5.23,1,12.85,12.85,0,0,1-9.08-3.52V174.39Z"></path><path fill="url(#f)" d="M342.49,174.39V575.74c-2.63-2.67-5.55-5-10.68-5a13.57,13.57,0,0,0-3.64.46V174.39Z"></path><path fill="url(#g)" d="M371.81,174.39V573.15c-4.74,3.43-7.15,9.33-14.31,10.17V174.39Z"></path><path fill="url(#h)" d="M401.14,174.39V583.26c-7-1.1-9.34-7.17-14.31-10.45V174.39Z"></path><path fill="url(#i)" d="M430.47,174.39V571.05a13.14,13.14,0,0,0-3.12-.34c-5.47,0-8.43,2.67-11.2,5.57V174.39Z"></path></g><rect width="400.78" height="21.76" x="250.85" y="152.63" fill="#a4b5dd"></rect><rect width="334.36" height="21.76" x="284.05" y="174.39" fill="#3e5fab" opacity=".42"></rect><g data-name="Robot\Leg\Small"><rect width="62.98" height="16" x="477.67" y="695.29" fill="#ee9e23" transform="rotate(-53.13 509.207 703.316)"></rect><circle cx="491.76" cy="728.28" r="17.49" fill="#e77b26"></circle><circle cx="491.76" cy="728.28" r="7.67" fill="#4e4f50"></circle><path fill="#787878" d="M541.38,793.59a53.79,53.79,0,0,0-41.62-52.4,53.79,53.79,0,1,1,12.16,106.18A54.16,54.16,0,0,1,499.76,846,53.79,53.79,0,0,0,541.38,793.59Z"></path><circle cx="497.09" cy="793.59" r="53.78" fill="#4e4f50"></circle><circle cx="497.09" cy="793.59" r="37.13" fill="#6b6b6b"></circle><circle cx="497.09" cy="793.59" r="17.49" fill="none" stroke="#787878" stroke-miterlimit="10"></circle><path fill="#f6be1d" d="M491.23,799l-60.6-65.31a8,8,0,0,1-.54-10.24l37.79-50.39,12.8,9.6-33.78,45L503,788.15Z"></path><path fill="#4e4f50" d="M440.15,639.42H559.35a6,6,0,0,1,6,6v8.45a0,0,0,0,1,0,0H434.15a0,0,0,0,1,0,0v-8.45A6,6,0,0,1,440.15,639.42Z" transform="rotate(-180 499.75 646.64)"></path><path fill="#787878" d="M542.86,650.31V639.42h22.49v10.89a3.56,3.56,0,0,1-3.55,3.56H539.31A3.56,3.56,0,0,0,542.86,650.31Z"></path><path fill="#f6be1d" d="M451.47,653.87H548a6,6,0,0,1,6,6V682a0,0,0,0,1,0,0H445.47a0,0,0,0,1,0,0V659.87A6,6,0,0,1,451.47,653.87Z" transform="rotate(-180 499.75 667.935)"></path><path fill="#ee9e23" d="M539.27,678.45V653.87H554v24.58a3.56,3.56,0,0,1-3.55,3.56H535.71A3.57,3.57,0,0,0,539.27,678.45Z"></path><circle cx="438.27" cy="728.28" r="17.49" fill="#ee9e23"></circle><circle cx="438.27" cy="728.28" r="7.67" fill="#4e4f50"></circle><circle cx="497.09" cy="793.59" r="17.49" fill="#ee9e23"></circle><circle cx="497.09" cy="793.59" r="7.67" fill="#4e4f50"></circle></g><g data-name="Robot\Head\Side"><path fill="#838383" d="M509.25,499c0-2.12-1.61-2.11-1.63-4.23s1.58-2.14,1.56-4.26-1.62-2.11-1.63-4.23,1.58-2.13,1.56-4.25-1.62-2.11-1.64-4.23,1.58-2.13,1.57-4.25l-20.64-.12c0,2.12-1.58,2.13-1.56,4.25s1.62,2.11,1.64,4.23-1.58,2.13-1.57,4.25,1.62,2.11,1.64,4.23-1.58,2.14-1.56,4.26,1.62,2.11,1.63,4.23Z"></path><path fill="#4e4f50" d="M488.41 473.41h0a22.47 22.47 0 002.35 1.58 16.19 16.19 0 002.52 1.13c.87.29 1.76.56 2.67.8s1.83.52 2.73.72c1.79.51 3.64.65 5.58 1.34a12.24 12.24 0 014.83 3.29 22 22 0 00-5.19-2.1c-.88-.19-1.78-.31-2.74-.43a29 29 0 01-2.87-.55 30.72 30.72 0 01-5.5-1.93 11.31 11.31 0 01-2.48-1.63 11.45 11.45 0 01-1.91-2.21h0zM509 489.69a27.24 27.24 0 00-5.31-2.62 18.08 18.08 0 00-2.84-.61c-1-.17-2-.38-3-.64a31.58 31.58 0 01-5.75-2.18 10.86 10.86 0 01-4.45-4.25 16.08 16.08 0 005 3.12c.91.33 1.83.65 2.79.93s1.91.6 2.85.84 1.9.48 2.88.7a14 14 0 013 .93 11.51 11.51 0 012.66 1.65A17.73 17.73 0 01509 489.69zM486.93 486.28a15.9 15.9 0 005 2.85c.91.31 1.82.61 2.77.87s1.86.58 2.8.8 1.86.45 2.83.66a13.51 13.51 0 012.94 1 13.07 13.07 0 014.7 3.78h0a23.13 23.13 0 00-5.17-2.63 16.2 16.2 0 00-2.75-.63c-1-.16-2-.35-2.95-.6a33.91 33.91 0 01-5.65-2.08A10.61 10.61 0 01486.93 486.28z"></path><path fill="#657ebd" d="M533.77,483.74c-5-2.92-19.29-10.43-37.6-7.71a55.09,55.09,0,0,0-19.61,6.91,148.16,148.16,0,0,1-6-61c14.58-4.18,30.47-5.34,52.08-5.29Z"></path><path fill="#fcc01d" d="M533.1,483.93c-5-2.92-19.29-10.43-37.59-7.71a55.27,55.27,0,0,0-19.62,6.91,148.11,148.11,0,0,1-6-61c14.59-4.18,30.47-5.34,52.08-5.29Z"></path><circle cx="493.93" cy="458.45" r="14.01" fill="#e97b24"></circle><path fill="#e97b24" d="M533.77,483.74l-10.94-65.89-.77-1.18c-3.83,0-7.48,0-11,.11a79.24,79.24,0,0,1-9.52,9.83c13.48,14.68,16.17,38.53,17.27,50.84A61.3,61.3,0,0,1,533.77,483.74Z"></path><path fill="#f2a01e" d="M505.87,425.37s13.39-11.38,13.94-18.56c0,0,36.24,39.32,16.4,86.37,0,0-11.51-2.95-12.51-11S522.13,443.09,505.87,425.37Z"></path><circle cx="524.76" cy="435.25" r="4.69" fill="#30302f"></circle><circle cx="500.25" cy="456.64" r="14.01" fill="#4e4f50"></circle><circle cx="500.25" cy="456.64" r="8.34" fill="#30302f"></circle></g><g data-name="Robot\Body\Side"><path fill="#4e4f50" d="M394.07,716s3,24,16.9,6.9Z"></path><circle cx="403.67" cy="691.4" r="8.01" fill="#4e4f50"></circle><path fill="#f6be1d" d="M397.74,691.8h5.85a13.5,13.5,0,0,1,13.5,13.5v0a13.5,13.5,0,0,1-13.5,13.5h-13.5a0,0,0,0,1,0,0V699.45A7.65,7.65,0,0,1,397.74,691.8Z" transform="rotate(-67.77 403.558 705.284)"></path><path fill="#375fab" d="M408.21,599.06h19a0,0,0,0,1,0,0v82.27a9.52,9.52,0,0,1-9.52,9.52h0a9.52,9.52,0,0,1-9.52-9.52V599.06A0,0,0,0,1,408.21,599.06Z" transform="rotate(18.44 417.694 644.883)"></path><path fill="#f6be1d" d="M408.21,599.06h19a0,0,0,0,1,0,0v82.27a9.52,9.52,0,0,1-9.52,9.52h0a9.52,9.52,0,0,1-9.52-9.52V599.06A0,0,0,0,1,408.21,599.06Z" transform="rotate(18.44 417.694 644.883)"></path><path fill="#f8e782" d="M408,689.24l-1.91-.59c5.55-17.83,18.85-59.94,22.29-66a13.26,13.26,0,0,1,8.49-6.71l.46,1.95a11.28,11.28,0,0,0-7.21,5.75C426.68,629.69,412.33,675.38,408,689.24Z"></path><path fill="#f6be1d" d="M448.89,516.91H468a0,0,0,0,1,0,0v82.68a9.57,9.57,0,0,1-9.57,9.57h0a9.57,9.57,0,0,1-9.57-9.57V516.91A0,0,0,0,1,448.89,516.91Z" transform="rotate(34.75 458.434 562.963)"></path><circle cx="429.14" cy="606.25" r="18.91" fill="#4e4f50"></circle><circle cx="429.12" cy="606.19" r="10.52" fill="#30302f"></circle><path fill="#838383" d="M514.9,646.1c0-3.62-2.76-3.6-2.79-7.22s2.71-3.65,2.68-7.27S512,628,512,624.39s2.7-3.64,2.67-7.26-2.75-3.6-2.78-7.22,2.7-3.64,2.67-7.26l-35.22-.23c0,3.62-2.7,3.64-2.67,7.26s2.76,3.6,2.78,7.22-2.7,3.64-2.67,7.26,2.76,3.6,2.79,7.22-2.71,3.65-2.68,7.27,2.76,3.6,2.79,7.23Z"></path><path fill="#4e4f50" d="M479.34 602.42h0a42.8 42.8 0 004 2.7 26.63 26.63 0 004.3 1.92c1.49.49 3 1 4.56 1.37s3.12.89 4.65 1.24c3.05.88 6.23 1.12 9.54 2.28a21.1 21.1 0 018.24 5.63 37.9 37.9 0 00-8.86-3.59c-1.5-.33-3.05-.53-4.68-.73s-3.28-.56-4.9-.94a53.64 53.64 0 01-9.38-3.3 20.32 20.32 0 01-4.24-2.79 19.82 19.82 0 01-3.25-3.79h0zM514.52 630.24a46.84 46.84 0 00-9.07-4.48 30.49 30.49 0 00-4.84-1c-1.7-.29-3.43-.65-5.14-1.09a54.55 54.55 0 01-9.81-3.74 18.48 18.48 0 01-7.6-7.26 27.07 27.07 0 008.5 5.32c1.55.59 3.13 1.13 4.77 1.6s3.25 1 4.86 1.45 3.24.82 4.92 1.19a24.87 24.87 0 015.11 1.59 20.1 20.1 0 014.54 2.82A30.1 30.1 0 01514.52 630.24zM476.8 624.4a27.25 27.25 0 008.56 4.87c1.54.52 3.11 1 4.72 1.49s3.17 1 4.77 1.37 3.19.77 4.85 1.13a22.89 22.89 0 015 1.65 22.17 22.17 0 018 6.46h0v0h0a39.57 39.57 0 00-8.83-4.5 28.24 28.24 0 00-4.7-1.08c-1.65-.28-3.35-.61-5-1a58 58 0 01-9.66-3.55A18.35 18.35 0 01476.8 624.4z"></path><path fill="#f6be1d" d="M525.93,601.16l-54.61,10.21a3.35,3.35,0,0,1-3.88-2.52l-19.7-82.22a3.37,3.37,0,0,1,.63-2.87l20.73-26.24a3.38,3.38,0,0,1,2.66-1.28c7.72.07,16.14.48,25.15,1.45a254.31,254.31,0,0,1,29.58,4.93,3.3,3.3,0,0,1,2.38,2.06,129,129,0,0,1-.44,94.42A3.37,3.37,0,0,1,525.93,601.16Z"></path><path fill="#ee9e23" d="M457.18,513.46l-8.13,10.3a3.37,3.37,0,0,0-.64,2.87l19.7,82.22a3.37,3.37,0,0,0,3.89,2.52l54.6-10.21a3.38,3.38,0,0,0,2.51-2.06c.66-1.67,1.34-3.48,2-5.41C480.64,577.69,462.77,533.31,457.18,513.46Z"></path><path fill="none" stroke="#4e4f50" stroke-miterlimit="10" stroke-width="2" d="M470.79 496.24S448 565.15 484.62 609M478.06 496.8s-.7 2.09-1.63 5.78"></path><path fill="none" stroke="#4e4f50" stroke-dasharray="11.55 11.55" stroke-miterlimit="10" stroke-width="2" d="M474,513.86c-3.63,20.38-6,55.31,11.68,84"></path><path fill="none" stroke="#4e4f50" stroke-miterlimit="10" stroke-width="2" d="M488.88,602.64q1.72,2.42,3.67,4.75"></path><path fill="#f8e782" d="M512.25,604.86l-.69-8.31a16.32,16.32,0,0,1,12.6-17.19l12.66-2.88L536.5,578a131.29,131.29,0,0,1-7.17,23.19l-.21.5Zm22-25.73-9.61,2.18a14.32,14.32,0,0,0-11.05,15.07l.51,6.1,13.63-2.54A129.1,129.1,0,0,0,534.21,579.13Z"></path><path fill="#ee9e23" d="M471.37,613.43a5.38,5.38,0,0,1-5.21-4.12L446.47,527.1a5.32,5.32,0,0,1,1-4.58l20.72-26.24a5.44,5.44,0,0,1,4.25-2c8.43.07,17,.56,25.34,1.46a259.39,259.39,0,0,1,29.82,5,5.31,5.31,0,0,1,3.8,3.29,131,131,0,0,1-.44,95.87,5.35,5.35,0,0,1-4,3.29h0l-54.61,10.21A4.75,4.75,0,0,1,471.37,613.43Zm1-115.19a1.35,1.35,0,0,0-1.06.52L450.61,525a1.35,1.35,0,0,0-.25,1.16l19.69,82.22a1.37,1.37,0,0,0,1.58,1l54.6-10.21a1.37,1.37,0,0,0,1-.83,127.1,127.1,0,0,0,.43-93,1.32,1.32,0,0,0-1-.83,253.76,253.76,0,0,0-29.35-4.89c-8.26-.89-16.66-1.37-25-1.44Zm54.2,102.92h0Z"></path><circle cx="505.1" cy="532.19" r="18.91" fill="#30302f"></circle><path fill="#4e4f50" d="M697.14,562.06s18.63-15.46,17,6.56Z"></path><circle cx="681.9" cy="579.57" r="8.01" fill="#4e4f50"></circle><path fill="#ee9e23" d="M683.24,562.87h13.5a13.5,13.5,0,0,1,13.5,13.5v0a13.5,13.5,0,0,1-13.5,13.5H690.9a7.65,7.65,0,0,1-7.65-7.65V562.87A0,0,0,0,1,683.24,562.87Z" transform="rotate(111.03 696.737 576.396)"></path><path fill="#375fab" d="M624.88,543.64h19a0,0,0,0,1,0,0V625.9a9.52,9.52,0,0,1-9.52,9.52h0a9.52,9.52,0,0,1-9.52-9.52V543.64A0,0,0,0,1,624.88,543.64Z" transform="rotate(-100.25 634.36 589.54)"></path><path fill="#ee9e23" d="M624.88,543.64h19a0,0,0,0,1,0,0V625.9a9.52,9.52,0,0,1-9.52,9.52h0a9.52,9.52,0,0,1-9.52-9.52V543.64A0,0,0,0,1,624.88,543.64Z" transform="rotate(-100.25 634.36 589.54)"></path><path fill="#f8e782" d="M609.91,590.87h-.17a13.25,13.25,0,0,1-10-4.22l1.49-1.34a11.28,11.28,0,0,0,8.51,3.56h.15c7.44,0,53.86-9.22,68-12.06l.39,2C660.15,582.42,617.35,590.87,609.91,590.87Z"></path><path fill="#ee9e23" d="M532.7,517.54h19.14a0,0,0,0,1,0,0v82.68a9.57,9.57,0,0,1-9.57,9.57h0a9.57,9.57,0,0,1-9.57-9.57V517.54a0,0,0,0,1,0,0Z" transform="rotate(-45 542.26 563.669)"></path><circle cx="579.58" cy="600.21" r="18.91" fill="#4e4f50"></circle><circle cx="579.51" cy="600.21" r="10.52" fill="#30302f"></circle><circle cx="511.56" cy="532.19" r="19" fill="#4e4f50"></circle><circle cx="511.56" cy="532.19" r="10.57" fill="#30302f"></circle></g><g><path fill="#a4b5dd" d="M240.18,738c-1,1.1-2.07,3.61-3,6.29l-.51-28.62a63,63,0,0,1,6.56-19L241,695.36a58.79,58.79,0,0,0-4.49,10.41L235.12,625c.81-5.07,2.55-10.91,3.89-11.59l-1.17-2.31c-1.16.59-2.12,2.18-2.89,4.1l-.39-22.25L232,593l.21,11.62a25.61,25.61,0,0,0-3.43-6l-2,1.68s4.25,5.16,5.59,14.82l2,115.31a68.32,68.32,0,0,0-9-16.23l-2,1.61c.09.12,9,11.5,11.26,24.82l.3,16.7,2.59,0-.07-3.74c1-4.51,3.17-12.1,4.68-13.7Z"></path><path fill="#c4cfe6" d="M169.38,643.93c-.57-1.42,2.38-4.56,8.29-10.78,5.68-6,8.51-8.95,11.61-11,2.86-1.88,9.36-6,18.25-6.43,6.64-.29,4.52,2,20.53,5.18,3.77.76,7.91,1.45,9.95,4.77.22.36,1.74,2.85.83,5-1.12,2.63-5.07,2.67-11.4,3.94-2.48.5,1.64-.21-15.56,4.56-8.94,2.49-13.41,3.73-15.34,4.15S171.28,648.72,169.38,643.93Z"></path><path fill="#a4b5dd" d="M175.76,640a30.49,30.49,0,0,1,5.24-3c.87-.4,1.75-.79,2.63-1.13a15.88,15.88,0,0,1,2.71-.88c1.88-.41,4-.49,5.75-1.28a15.61,15.61,0,0,0,4.75-3.47c.72-.71,1.45-1.44,2.24-2.09a25.57,25.57,0,0,1,2.48-1.79,29.13,29.13,0,0,1,5.37-2.93,25.83,25.83,0,0,1,12.15-1.67l.13.48a44.54,44.54,0,0,1-5.07,3.37c-1.69,1-3.38,1.89-5.09,2.72s-3.5,1.48-5.27,2.2a49,49,0,0,1-5.51,2,22.59,22.59,0,0,0-5.42,2.55c-1.67,1.08-3.16,2.67-4.94,3.74a11.54,11.54,0,0,1-2.82,1.21,20.21,20.21,0,0,1-3,.67,15.57,15.57,0,0,1-6.25-.25Z"></path><path fill="#dde6f4" d="M225.36,718.16c1.19-.78-.09-3.4-2.28-14.1-2.56-12.55-1.89-14.23-4.35-18-2.29-3.53-5.26-5.46-11.2-9.33a94,94,0,0,0-16-8.08c-9.89-4.21-9.51-3-14.72-5.6-11.33-5.69-16-12.87-18.24-11.41-1,.63-.84,2.41.41,9.33,2.05,11.42,3.08,17.12,4.15,19.08,3.68,6.76,9.77,9.79,18,13.89,10.39,5.16,11.84,3,20.52,7.26C216.63,708.42,222.86,719.81,225.36,718.16Z"></path><path fill="#a4b5dd" d="M162.94,658.71c2.61,1.8,4.92,3.71,7.23,5.6l3.42,2.82c1.15.93,2.25,1.91,3.32,2.94,2.13,2.08,4.15,4.44,6.64,6.15a30.28,30.28,0,0,0,8.17,3.9c1.44.49,2.92.91,4.33,1.4s2.82,1,4.23,1.48,2.85.93,4.36,1.51a19.07,19.07,0,0,1,4.49,2.43,25.3,25.3,0,0,1,6.47,7.4,24,24,0,0,1,3.15,9l-.46.2a83.88,83.88,0,0,0-5.83-6.83,44.86,44.86,0,0,0-6.43-5.42,28.18,28.18,0,0,0-3.48-2l-4.08-2a42.81,42.81,0,0,1-4.12-2.2c-1.34-.8-2.59-1.72-3.86-2.6a73.62,73.62,0,0,0-7.79-5c-2.68-1.48-5.68-2.57-8.35-4.24a23,23,0,0,1-3.7-2.89,36,36,0,0,1-3.24-3.41,28.5,28.5,0,0,1-4.86-8Z"></path><path fill="#c4cfe6" d="M239.88,742.63c-2.6-.88-.28-14,.83-20.32,1.9-10.82,2.86-16.23,6.63-21.15,5.93-7.72,14.61-10.37,18.66-11.61,7.59-2.32,8.67-.35,18.46-2.9,10-2.61,14.16-6,15.76-4.36,1.85,2-1.7,8.88-5.6,13.48s-7.74,6.48-16,11c-10.13,5.56-15.2,8.34-17.21,9.74C245.92,727.39,242.77,743.61,239.88,742.63Z"></path><path fill="#a4b5dd" d="M241.91,734.53a23.79,23.79,0,0,1-.6-8.35c.08-.7.18-1.39.29-2.09s.28-1.38.46-2.06.39-1.36.63-2,.58-1.31.91-1.94a38.45,38.45,0,0,1,5.32-6.64c.93-1,1.86-2,2.83-3a37.36,37.36,0,0,1,3.1-2.92,48.33,48.33,0,0,1,6.71-4.72c2.28-1.42,4.55-2.83,6.93-4.05a74.73,74.73,0,0,1,7.35-3.29,52.13,52.13,0,0,1,7.87-2.4l.25.43a50.88,50.88,0,0,1-6.2,5.42,77,77,0,0,1-6.73,4.54,67.82,67.82,0,0,1-7.28,3.53c-1.24.54-2.46,1.1-3.73,1.55s-2.54.88-3.76,1.34a12.58,12.58,0,0,0-6.08,4.62c-1.51,2.15-2.07,4.81-2.73,7.24-.15.62-.34,1.23-.53,1.83s-.39,1.2-.6,1.8L245.13,727a76,76,0,0,1-2.72,7.6Z"></path><path fill="#dde6f4" d="M240.48,697.29c-1-.64-2.07-2.28.62-19.49,1.9-12.09,2.84-18.14,4.36-21.57,3.72-8.42,9.19-13,20.11-22.18,5.24-4.4,18.65-15.66,21.36-13.27,2.13,1.87-3.24,11.4-4.77,14.1-5.47,9.68-8.6,9.22-11.82,16.38-3.35,7.46-.53,9.26-4.15,20.32-1.33,4.07-3,9.18-7.05,14.31C253.74,692.81,244.19,699.72,240.48,697.29Z"></path><path fill="#a4b5dd" d="M245.63,688.09a35,35,0,0,1,1.31-9.28c.41-1.5.88-3,1.42-4.42a25.44,25.44,0,0,1,2-4.24c.8-1.37,1.74-2.58,2.56-3.83a23.88,23.88,0,0,0,3.6-8.28c.35-1.48.5-3,.73-4.55a17.74,17.74,0,0,1,1.31-4.82,16.88,16.88,0,0,1,1.16-2.23,17.85,17.85,0,0,1,1.56-2.1c1.12-1.3,2.21-2.37,3.29-3.44s2.17-2.09,3.29-3.1q3.36-3,6.91-5.86a91.32,91.32,0,0,1,7.44-5.52l.38.33a50.32,50.32,0,0,1-5,7.92,64.55,64.55,0,0,1-6.09,7c-1.1,1.08-2.25,2.13-3.44,3.1s-2.39,1.92-3.38,2.82A14.12,14.12,0,0,0,263.3,649c-.43.51-.85,1.08-1.28,1.63a18.89,18.89,0,0,0-2.17,3.61,77.84,77.84,0,0,0-3.25,8.64c-.46,1.47-.79,3-1.18,4.52s-.82,3.07-1.3,4.47a43.34,43.34,0,0,1-1.63,4.17c-.6,1.38-1.24,2.74-1.89,4.1a66.72,66.72,0,0,1-4.49,8.08Z"></path><path fill="#dde6f4" d="M232.83 593.79c-2.82-.95-2.5-10.14-2.28-16.59.14-4.25.6-6.4.41-11.61a73.33 73.33 0 00-.83-8.71c-1.18-7.41-3.06-10.32-4.14-14.52-2.09-8.05.19-15.07 3.52-25.29 3.48-10.69 6.35-11.71 6.84-19.7.22-3.57-.06-8.16 1.66-8.71 1.12-.36 2.6 1.12 3.73 2.49 11.91 14.26 14.1 38.56 14.1 38.56.72 8 1.12 12.4-.2 18.46-1.26 5.77-2.73 6.82-6.43 18-2.86 8.68-2.4 9.31-4.36 13.48C241.73 586.34 235.81 594.79 232.83 593.79zM190.32 519.35c.88-.6 2.76.73 5.81 2.9a37.28 37.28 0 0113.47 17.83c.86 2.51.68 2.95 2.28 11 1 4.95 1.5 7.45 2.08 8.71 1.68 3.68 3.28 4.12 7 8.92 2.62 3.33 4.75 6 6.22 9.95 1 2.58.62 2.94 1.87 14.1.76 6.83 1.06 8.19.16 8.85-2.75 2-11.9-6.18-13-7.19-5.18-4.65-15-13.48-18.66-28.41-3-12.41 1.89-14.13-1.87-28.2C193.12 528.09 188.55 520.56 190.32 519.35z"></path><path fill="#a4b5dd" d="M199.73 529a24 24 0 014.83 8.63 27.59 27.59 0 011.14 4.87 18.81 18.81 0 01.11 5c-.18 1.62-.47 3.12-.64 4.67a21.53 21.53 0 000 4.68 25.06 25.06 0 002.83 8.9c.7 1.4 1.52 2.75 2.24 4.18s1.39 2.78 2.12 4.1a37.43 37.43 0 002.37 3.73c.88 1.19 1.74 2.35 2.68 3.42s2 2.24 3.08 3.48 2.06 2.52 3 3.84c.48.65.92 1.33 1.35 2s.85 1.39 1.25 2.09c.82 1.41 1.59 2.84 2.27 4.33l-.4.31a83.1 83.1 0 01-7.39-6.12L217 588.08a46.73 46.73 0 01-3.59-3.32 23.11 23.11 0 01-3.09-4.14 32.93 32.93 0 01-2.27-4.57 48.82 48.82 0 01-2.68-9.41c-.61-3.23-1.13-6.39-1.83-9.53-.33-1.58-.77-3.16-1.12-4.78a42.76 42.76 0 01-.77-4.85c-.15-1.55-.24-3-.36-4.49s-.3-3-.51-4.49c-.41-3-1-6-1.49-9.3zM239.7 494.38a23.82 23.82 0 012.52 5.44 26.31 26.31 0 011.26 5.93 22.83 22.83 0 01.11 3.1c0 1-.08 2-.14 2.9-.1 1.9-.24 3.79-.5 5.7-.52 3.84-1.53 7.56-1.23 11.36s1.74 7.41 2.53 11.34a55 55 0 011 5.87 47.45 47.45 0 01.24 6 38.31 38.31 0 01-1.87 11.92c-1.13 3.68-2.34 7.28-3.54 10.94a104.11 104.11 0 01-4.12 10.9l-.49-.1a101.72 101.72 0 01.77-11.71c.21-1.94.58-3.86.94-5.78s.82-3.82 1.3-5.69 1-3.65 1.41-5.37a51.1 51.1 0 00.89-5.4c.21-1.85.33-3.71.45-5.59s.27-3.77.28-5.67a31.07 31.07 0 00-.39-5.68c-.32-1.88-.73-3.82-1-5.77a96 96 0 01-1.32-11.75 40.8 40.8 0 01.22-5.84c.1-1 .24-1.95.34-2.86s.19-1.76.24-2.68c.09-1.83.07-3.68 0-5.56s-.25-3.78-.38-5.76z"></path><path fill="#dde6f4" d="M238,612.64c-3-4.44,3.73-13.6,5.6-16.18a31.09,31.09,0,0,1,14.31-11.19c2.43-.88,6.25-1.28,13.89-2.08,6.73-.7,6.81-.44,12.65-1,10.32-1,15.47-1.57,19.08-2.49,2.82-.72,8.24-2.3,12.65-.42,1.14.49,1.78,1,1.86,1.66.17,1.34-2.19,2.61-5,4.15,0,0-5.06,2.8-10.16,5.81a44.69,44.69,0,0,0-9.54,6.84c-3.75,3.67-3.35,4.95-7.05,8.29a31.65,31.65,0,0,1-8.3,5.39c-5.15,2.23-9.19,1.91-15.55,1.87C243.88,613.14,239.94,615.56,238,612.64Z"></path><path fill="#a4b5dd" d="M239.91,608.71a24.31,24.31,0,0,1,6.92-6.6,29.35,29.35,0,0,1,4.24-2.29,21.21,21.21,0,0,1,4.57-1.48,77,77,0,0,1,9.52-.74c1.57-.11,3.17-.12,4.63-.32A17.61,17.61,0,0,0,274,596c1.38-.58,2.71-1.29,4-2s2.65-1.32,3.93-2,2.53-1.48,3.7-2.27,2.34-1.66,3.69-2.55a30.74,30.74,0,0,1,8.9-4,28.19,28.19,0,0,1,9.53-.92l.09.49c-2.85,1.39-5.59,2.65-8.17,4.09a69,69,0,0,0-7.34,4.7,40,40,0,0,1-4,2.6,36.14,36.14,0,0,1-4.42,2.08,33.45,33.45,0,0,1-4.56,1.53,36,36,0,0,1-4.75.83c-1.6.17-3.2.28-4.81.31a26.35,26.35,0,0,0-4.57.24c-3,.51-5.76,2-8.47,3.12-1.37.59-2.74,1.12-4.12,1.61s-2.72,1.05-4.09,1.62c-2.75,1.12-5.46,2.38-8.44,3.55Z"></path><polygon fill="#b2c2e3" points="276.24 847.37 195.22 847.37 186.54 810.86 212.59 746.84 258.87 746.84 284.92 810.86 276.24 847.37"></polygon><polygon fill="url(#j)" points="258.87 746.84 235.73 746.84 235.73 847.37 276.24 847.37 284.92 810.86 258.87 746.84" opacity=".47"></polygon><polygon fill="url(#k)" points="276.5 847.37 195 847.37 235.73 808.6 276.5 847.37"></polygon></g><g><path fill="#a8b9df" d="M708.72,847.37H634.61a3,3,0,0,1-3-2.57l-14-103.08a3,3,0,0,1,2.95-3.37H722.77a3,3,0,0,1,2.94,3.37L711.66,844.8A3,3,0,0,1,708.72,847.37Z"></path><path fill="#336297" d="M718.26 731.32h2.22a2.29 2.29 0 012.29 2.29v4.74a0 0 0 010 0H716a0 0 0 010 0v-4.74A2.29 2.29 0 01718.26 731.32zM624.15 731.32h2.22a2.29 2.29 0 012.29 2.29v4.74a0 0 0 010 0h-6.79a0 0 0 010 0v-4.74a2.29 2.29 0 012.29-2.29z"></path><path fill="url(#l)" d="M647.92,767.64a55.27,55.27,0,0,1,8.49-29.29H620.56a3,3,0,0,0-2.95,3.37l14,103.08a3,3,0,0,0,3,2.57h74.11a3,3,0,0,0,2.94-2.57l2.12-15.52C677,826.9,647.92,800.22,647.92,767.64Z" opacity=".47"></path><path fill="#336297" d="M619.33,752.82a96.85,96.85,0,0,0-8.52,7.64,45.82,45.82,0,0,0-7,8.92,25.63,25.63,0,0,0-2.29,5,14.1,14.1,0,0,0-.57,5.29,9.44,9.44,0,0,0,1.87,4.77,12.87,12.87,0,0,0,4,3.38,21.8,21.8,0,0,0,5,2,35.3,35.3,0,0,0,5.43,1.1,62.56,62.56,0,0,0,11.21.39,113.19,113.19,0,0,0,22.35-3.45,159.73,159.73,0,0,0,21.6-7A168,168,0,0,0,693,771.1a97,97,0,0,0,18.45-13.16,37.57,37.57,0,0,0,7.14-8.72,17.43,17.43,0,0,0,2-5.26,11.15,11.15,0,0,0-.32-5.61A11.31,11.31,0,0,1,721,744a17.92,17.92,0,0,1-1.7,5.56,38.68,38.68,0,0,1-6.81,9.39,91.15,91.15,0,0,1-18.3,14.14,155.87,155.87,0,0,1-20.65,10.4,157.54,157.54,0,0,1-22,7.32,113,113,0,0,1-23,3.37,64.56,64.56,0,0,1-11.69-.62,37.65,37.65,0,0,1-5.78-1.3,24,24,0,0,1-5.5-2.42,15.09,15.09,0,0,1-4.57-4.12,11.26,11.26,0,0,1-2.07-5.86,16,16,0,0,1,.89-6,26.12,26.12,0,0,1,2.68-5.27,46.86,46.86,0,0,1,7.65-8.71A75.44,75.44,0,0,1,619.33,752.82Z"></path><rect width="121.36" height="7.8" x="610.98" y="738.35" fill="#c4cfe6" rx="3.9"></rect></g><g><rect width="216.67" height="303.97" x="1035.81" y="524.91" fill="#a7b8de" rx="3"></rect><path fill="#e6eaf5" d="M1222.19,527.91v298a3,3,0,0,1-3,3h-208a3,3,0,0,1-3-3v-298a3,3,0,0,1,3-3h208a3,3,0,0,1,3,3Z"></path><rect width="166.35" height="45.56" x="1033.38" y="689.34" fill="#c4cee5" rx="3"></rect><rect width="166.35" height="45.56" x="1033.38" y="754.57" fill="#c4cee5" rx="3"></rect><rect width="166.35" height="45.56" x="1033.38" y="624.12" fill="#c4cee5" rx="3"></rect><path fill="#e6eaf5" d="M1088.87,658.18h55.37a0,0,0,0,1,0,0v0a11.5,11.5,0,0,1-11.5,11.5h-32.38a11.5,11.5,0,0,1-11.5-11.5v0A0,0,0,0,1,1088.87,658.18Z" transform="rotate(180 1116.555 663.93)"></path><rect width="166.35" height="45.56" x="1033.38" y="555.72" fill="#c4cee5" rx="3"></rect><path fill="#e6eaf5" d="M1088.87,589.78h55.37a0,0,0,0,1,0,0v0a11.5,11.5,0,0,1-11.5,11.5h-32.38a11.5,11.5,0,0,1-11.5-11.5v0A0,0,0,0,1,1088.87,589.78Z" transform="rotate(180 1116.555 595.53)"></path><path fill="#e6eaf5" d="M1088.87,723.4h55.37a0,0,0,0,1,0,0v0a11.5,11.5,0,0,1-11.5,11.5h-32.38a11.5,11.5,0,0,1-11.5-11.5v0A0,0,0,0,1,1088.87,723.4Z" transform="rotate(180 1116.555 729.15)"></path><path fill="#e6eaf5" d="M1088.87,788.62h55.37a0,0,0,0,1,0,0v0a11.5,11.5,0,0,1-11.5,11.5h-32.38a11.5,11.5,0,0,1-11.5-11.5v0a0,0,0,0,1,0,0Z" transform="rotate(180 1116.555 794.375)"></path><path fill="#c4cee5" d="M1025,847.37h-5.16a2.68,2.68,0,0,1-2.69-2.69v-15.8h18.49l-8.22,17A2.69,2.69,0,0,1,1025,847.37Z"></path><path fill="#a7b8de" d="M1055.35,847.37h-5.16a2.68,2.68,0,0,1-2.69-2.69v-15.8H1066l-8.22,17A2.69,2.69,0,0,1,1055.35,847.37Z"></path><path fill="#c4cee5" d="M1210.37,847.37h5.17a2.69,2.69,0,0,0,2.69-2.69v-15.8h-18.5l8.23,17A2.66,2.66,0,0,0,1210.37,847.37Z"></path><path fill="#a7b8de" d="M1240.89,847.37h5.17a2.68,2.68,0,0,0,2.68-2.69v-15.8h-18.49l8.22,17A2.69,2.69,0,0,0,1240.89,847.37Z"></path><polygon fill="#f2f6fb" points="1124.32 524.91 1067.91 828.88 1023.23 828.88 1079.65 524.91 1124.32 524.91" opacity=".42"></polygon><path fill="#f2f6fb" d="M1220.35,525.14,1164,828.88h-73l56.41-304h71.79A3,3,0,0,1,1220.35,525.14Z" opacity=".42"></path></g><g><polygon fill="#e7ebf6" points="1182.66 295.91 1182.66 427.75 971.47 427.75 971.49 295.91 1182.66 295.91"></polygon><path fill="url(#c)" d="M1188.8,435.33H964.69V289H1188.8Zm-217.11-7,211-.58V295.91l-211,.07Z" opacity=".47"></path><polygon fill="url(#m)" points="1182.66 295.91 1182.66 427.75 971.47 427.75 971.49 295.91 1182.66 295.91" opacity=".47"></polygon><rect width="91.23" height="15.15" x="1080.94" y="383.24" fill="url(#n)" opacity=".47" transform="rotate(-180 1126.56 390.81)"></rect><rect width="48.28" height="15.15" x="1123.89" y="406.34" fill="url(#o)" opacity=".47" transform="rotate(-180 1148.035 413.91)"></rect><rect width="91.23" height="15.15" x="985.14" y="316.6" fill="url(#p)" opacity=".47"></rect><rect width="48.28" height="15.15" x="985.14" y="339.7" fill="url(#q)" opacity=".47"></rect><polygon fill="#fff" points="1070.7 295.91 1033.19 427.75 1000.93 427.75 1038.44 295.91 1070.7 295.91" opacity=".43"></polygon><polygon fill="#fff" points="1133.56 295.91 1096.05 427.75 1048.49 427.75 1086 295.91 1133.56 295.91" opacity=".43"></polygon></g><g><path fill="#ee465e" d="M667.05,576.8a2.07,2.07,0,0,1-.35-2.52c5.71-9.81,41.45-69.95,55.71-60.33,14.75,9.95,22.31,63.65,19.83,84.87a2.07,2.07,0,0,1-3,1.59c-3.78-2-10.88-5.73-15.57-7a2.06,2.06,0,0,1-.47-3.78l.07,0c2.46-1.29-7.59-5.18-9.44-3.17s3.09,4.07,2.19,5.63-11.35,3.41-15.24-3.63a2.05,2.05,0,0,1,.25-2.29c2.42-2.89,9-11.29,6.07-13.55-3.57-2.76-21.36-6.93-19.92-3.38s5.79,7.8-.93,10.77A17.13,17.13,0,0,1,667.05,576.8Z"></path><path fill="#c33d56" d="M707.84 530.91c-3.4 6.29-6.71 12.64-9.87 19.05-1.57 3.21-3.12 6.42-4.54 9.69-.37.81-.7 1.63-1 2.44s-.67 1.63-1 2.45-.61 1.65-.84 2.46c-.1.29-.18.58-.25.85-1.6-.07-2.76.08-3.14.57l.24-.95a9.85 9.85 0 01.49-1.36c.32-.9.68-1.74 1.07-2.57s.77-1.65 1.18-2.46.8-1.62 1.22-2.41c1.67-3.19 3.45-6.32 5.25-9.42C700.25 543.05 704 537 707.84 530.91zM707.73 573.72a1.74 1.74 0 00-.68-1.14 9.3 9.3 0 00-1.65-1l9.81-29zM716.45 585.9a3.29 3.29 0 00-2.67.52 1.42 1.42 0 00-.4.79l-.17 0 7.27-27.07zM720.83 587.05l3.5-36.67L723.6 589C723.47 588.4 722.31 587.66 720.83 587.05zM723.59 589.7l-.5 0 .07 0 .07 0a.7.7 0 00.37-.35z"></path></g></svg>