<svg width="472" height="329" viewBox="0 0 472 329" fill="none" xmlns="http://www.w3.org/2000/svg">
<g clip-path="url(#clip0_102_6687)">
<path d="M449.675 119.324H316.158V16.8956H0.805664V166.747H134.322V202.605H60.3248V328.806H375.677V269.175H449.675V119.324Z" fill="#F0F3F8"/>
<path d="M471.194 0.19397H337.729V99.2969H471.194V0.19397Z" fill="#F0F3F8"/>
<path d="M35.6972 188.595H13.7644V328.806H35.6972V188.595Z" fill="#F0F3F8"/>
<path d="M269.351 240.989C297.578 240.989 320.462 205.704 320.462 162.178C320.462 118.651 297.578 83.3663 269.351 83.3663C241.123 83.3663 218.239 118.651 218.239 162.178C218.239 205.704 241.123 240.989 269.351 240.989Z" fill="#99AED9"/>
<path d="M268.835 250.302C300.724 250.302 326.575 210.443 326.575 161.274C326.575 112.105 300.724 72.2461 268.835 72.2461C236.947 72.2461 211.096 112.105 211.096 161.274C211.096 210.443 236.947 250.302 268.835 250.302Z" fill="#3E5FAB"/>
<path opacity="0.5" d="M320.466 161.274C320.466 202.898 299.729 237.091 273.31 240.587C271.826 240.786 270.334 240.886 268.84 240.885C258.482 240.885 248.831 236.155 240.742 228.081C239.465 226.818 238.256 225.475 237.077 224.051C230.785 216.483 225.664 206.701 222.198 195.477C218.847 184.46 217.158 172.903 217.2 161.274C217.2 121.254 236.358 88.1295 261.296 82.5055C263.776 81.9462 266.3 81.6642 268.831 81.6636C274.408 81.6796 279.916 83.0333 284.978 85.6321C286.421 86.368 287.827 87.1907 289.189 88.0964C299.772 95.1015 308.529 107.404 314.05 122.843C318.163 134.228 320.466 147.34 320.466 161.274Z" fill="white"/>
<path opacity="0.39" d="M284.983 85.6321L237.081 224.051C230.789 216.483 225.668 206.701 222.203 195.477L261.3 82.5055C263.78 81.9462 266.305 81.6642 268.835 81.6636C274.412 81.6796 279.92 83.0333 284.983 85.6321ZM314.055 122.843L273.31 240.587C271.826 240.786 270.334 240.886 268.84 240.885C258.482 240.885 248.831 236.155 240.742 228.081L289.214 88.0964C299.776 95.1015 308.533 107.404 314.055 122.843Z" fill="white"/>
<path d="M201.27 10.4865H58.9285V149.142H201.27V10.4865Z" fill="#E8EBF6"/>
<path opacity="0.43" d="M154.774 10.4865L115.834 149.142H92.8665L131.811 10.4865H154.774Z" fill="white"/>
<path opacity="0.43" d="M201.594 10.4865L162.649 149.142H128.286L167.23 10.4865H201.594Z" fill="white"/>
<path opacity="0.47" d="M201.266 81.7723H58.9241V86.0293H201.266V81.7723Z" fill="url(#paint0_linear_102_6687)"/>
<path opacity="0.47" d="M201.266 51.1172H58.9241V55.3742H201.266V51.1172Z" fill="url(#paint1_linear_102_6687)"/>
<path opacity="0.47" d="M201.266 112.427H58.9241V116.684H201.266V112.427Z" fill="url(#paint2_linear_102_6687)"/>
<path d="M130.095 10.4865V203.967H130.018C129.117 203.978 128.228 203.736 127.434 203.262C124.778 201.673 123.926 197.951 119.929 197.951C114.82 197.951 114.82 203.972 109.759 203.972C104.697 203.972 104.676 197.951 99.5883 197.951C94.501 197.951 94.5053 203.972 89.4222 203.972C84.3392 203.972 84.3392 197.951 79.2562 197.951C74.1732 197.951 74.1732 203.972 69.0901 203.972C64.0071 203.972 64.0114 197.946 58.9241 197.946V10.4865H130.095Z" fill="#A4B5DD"/>
<g opacity="0.47">
<path d="M71.3166 10.4865V203.47C70.6114 203.796 69.8536 203.957 69.0901 203.943C67.6549 203.973 66.2666 203.375 65.2246 202.278V10.4865H71.3166Z" fill="url(#paint3_linear_102_6687)"/>
<path d="M83.8028 10.4865V200.325C82.6831 199.062 81.4401 197.96 79.2561 197.96C78.7331 197.954 78.2118 198.027 77.7065 198.178V10.4865H83.8028Z" fill="url(#paint4_linear_102_6687)"/>
<path d="M96.2848 10.4865V199.1C94.267 200.722 93.241 203.513 90.1929 203.91V10.4865H96.2848Z" fill="url(#paint5_linear_102_6687)"/>
<path d="M108.771 10.4865V203.882C105.791 203.362 104.795 200.491 102.679 198.939V10.4865H108.771Z" fill="url(#paint6_linear_102_6687)"/>
<path d="M121.257 10.4865V198.107C120.822 197.994 120.376 197.94 119.929 197.946C117.6 197.946 116.34 199.209 115.161 200.58V10.4865H121.257Z" fill="url(#paint7_linear_102_6687)"/>
</g>
<path d="M215.408 0.19397H44.7905V10.4864H215.408V0.19397Z" fill="#A4B5DD"/>
<path opacity="0.42" d="M201.266 10.4865H58.9241V20.7789H201.266V10.4865Z" fill="#3E5FAB"/>
<path d="M160.075 246.493L143.988 270.324L149.437 274.865L165.524 251.033L160.075 246.493Z" fill="#EE9E23"/>
<path d="M147.349 280.749C151.461 280.749 154.795 277.045 154.795 272.476C154.795 267.907 151.461 264.204 147.349 264.204C143.237 264.204 139.904 267.907 139.904 272.476C139.904 277.045 143.237 280.749 147.349 280.749Z" fill="#E77B26"/>
<path d="M147.349 276.104C149.153 276.104 150.614 274.48 150.614 272.476C150.614 270.473 149.153 268.849 147.349 268.849C145.546 268.849 144.084 270.473 144.084 272.476C144.084 274.48 145.546 276.104 147.349 276.104Z" fill="#4E4F50"/>
<path d="M168.473 303.368C168.474 297.621 166.723 292.042 163.505 287.542C160.288 283.041 155.794 279.883 150.755 278.583C153.899 277.77 157.162 277.705 160.331 278.392C163.499 279.079 166.501 280.502 169.14 282.569C171.778 284.635 173.993 287.298 175.64 290.383C177.287 293.468 178.328 296.905 178.696 300.468C179.063 304.032 178.748 307.641 177.772 311.06C176.795 314.479 175.179 317.629 173.029 320.305C170.88 322.981 168.245 325.122 165.298 326.587C162.352 328.052 159.16 328.808 155.932 328.806C154.19 328.808 152.453 328.591 150.755 328.158C155.794 326.857 160.289 323.699 163.506 319.197C166.724 314.696 168.475 309.116 168.473 303.368Z" fill="#787878"/>
<path d="M149.618 328.806C162.263 328.806 172.513 317.417 172.513 303.368C172.513 289.319 162.263 277.93 149.618 277.93C136.974 277.93 126.723 289.319 126.723 303.368C126.723 317.417 136.974 328.806 149.618 328.806Z" fill="#4E4F50"/>
<path d="M149.618 320.931C158.348 320.931 165.425 313.068 165.425 303.368C165.425 293.669 158.348 285.806 149.618 285.806C140.888 285.806 133.812 293.669 133.812 303.368C133.812 313.068 140.888 320.931 149.618 320.931Z" fill="#6B6B6B"/>
<path d="M149.618 311.641C153.731 311.641 157.064 307.937 157.064 303.368C157.064 298.799 153.731 295.095 149.618 295.095C145.506 295.095 142.173 298.799 142.173 303.368C142.173 307.937 145.506 311.641 149.618 311.641Z" stroke="#787878" stroke-miterlimit="10"/>
<path d="M147.124 305.927L121.325 275.035C120.783 274.386 120.462 273.545 120.42 272.66C120.378 271.775 120.617 270.901 121.096 270.192L137.183 246.357L142.632 250.898L128.252 272.183L152.134 300.795L147.124 305.927Z" fill="#F6BE1D"/>
<path d="M176.123 237.276H125.378C124.701 237.276 124.051 236.977 123.572 236.445C123.093 235.912 122.824 235.19 122.824 234.438V230.441H178.677V234.438C178.677 235.19 178.408 235.912 177.929 236.445C177.45 236.977 176.801 237.276 176.123 237.276Z" fill="#4E4F50"/>
<path d="M169.103 235.597V230.446H178.678V235.597C178.678 236.042 178.519 236.47 178.235 236.786C177.952 237.101 177.568 237.279 177.166 237.281H167.592C167.993 237.279 168.378 237.101 168.661 236.786C168.944 236.47 169.103 236.042 169.103 235.597Z" fill="#787878"/>
<path d="M171.304 250.586H130.21C129.533 250.586 128.883 250.287 128.404 249.755C127.925 249.222 127.656 248.501 127.656 247.748V237.28H173.859V247.748C173.859 248.501 173.59 249.222 173.111 249.755C172.631 250.287 171.982 250.586 171.304 250.586Z" fill="#F6BE1D"/>
<path d="M167.575 248.907V237.281H173.846V248.907C173.846 249.353 173.687 249.78 173.403 250.096C173.12 250.412 172.736 250.589 172.334 250.591H166.059C166.461 250.589 166.846 250.412 167.13 250.096C167.414 249.781 167.574 249.353 167.575 248.907Z" fill="#EE9E23"/>
<path d="M124.578 280.749C128.69 280.749 132.024 277.045 132.024 272.476C132.024 267.907 128.69 264.204 124.578 264.204C120.466 264.204 117.132 267.907 117.132 272.476C117.132 277.045 120.466 280.749 124.578 280.749Z" fill="#EE9E23"/>
<path d="M124.578 276.104C126.381 276.104 127.843 274.48 127.843 272.476C127.843 270.473 126.381 268.849 124.578 268.849C122.774 268.849 121.312 270.473 121.312 272.476C121.312 274.48 122.774 276.104 124.578 276.104Z" fill="#4E4F50"/>
<path d="M149.618 311.641C153.731 311.641 157.064 307.937 157.064 303.368C157.064 298.799 153.731 295.095 149.618 295.095C145.506 295.095 142.173 298.799 142.173 303.368C142.173 307.937 145.506 311.641 149.618 311.641Z" fill="#EE9E23"/>
<path d="M149.618 306.996C151.422 306.996 152.883 305.372 152.883 303.368C152.883 301.364 151.422 299.74 149.618 299.74C147.815 299.74 146.353 301.364 146.353 303.368C146.353 305.372 147.815 306.996 149.618 306.996Z" fill="#4E4F50"/>
<path d="M154.795 164.027C154.795 163.024 154.11 163.029 154.101 162.026C154.093 161.023 154.774 161.014 154.765 160.011C154.757 159.008 154.076 159.013 154.072 158.01C154.067 157.008 154.744 157.003 154.736 156C154.727 154.997 154.046 155.002 154.037 153.999C154.029 152.997 154.71 152.992 154.706 151.989L145.919 151.932C145.919 152.935 145.246 152.94 145.255 153.943C145.263 154.945 145.945 154.941 145.953 155.943C145.962 156.946 145.281 156.951 145.285 157.954C145.289 158.956 145.974 158.952 145.983 159.954C145.991 160.957 145.31 160.967 145.319 161.969C145.327 162.972 146.008 162.967 146.013 163.97L154.795 164.027Z" fill="#838383"/>
<path d="M145.923 151.923C146.242 152.195 146.576 152.445 146.924 152.67C147.267 152.882 147.626 153.061 147.997 153.205C148.367 153.342 148.746 153.47 149.133 153.583C149.521 153.697 149.912 153.829 150.295 153.924C151.057 154.165 151.845 154.231 152.671 154.558C153.459 154.884 154.165 155.418 154.727 156.114C154.032 155.679 153.289 155.346 152.518 155.12C152.143 155.031 151.76 154.974 151.351 154.917C150.94 154.853 150.532 154.766 150.129 154.657C149.325 154.436 148.541 154.13 147.788 153.744C147.407 153.54 147.052 153.28 146.732 152.973C146.422 152.665 146.149 152.313 145.919 151.928L145.923 151.923ZM154.689 159.623C153.978 159.12 153.22 158.705 152.428 158.384C152.033 158.252 151.628 158.156 151.219 158.096C150.793 158.015 150.368 157.916 149.942 157.793C149.098 157.538 148.278 157.193 147.494 156.762C146.701 156.309 146.044 155.611 145.6 154.752C146.221 155.385 146.943 155.885 147.728 156.227C148.116 156.383 148.507 156.535 148.916 156.667C149.325 156.8 149.729 156.951 150.129 157.064C150.53 157.178 150.938 157.292 151.355 157.396C151.795 157.489 152.223 157.636 152.633 157.835C153.04 158.037 153.421 158.3 153.765 158.616C154.098 158.922 154.407 159.259 154.689 159.623ZM145.293 158.01C145.923 158.6 146.644 159.057 147.422 159.359C147.809 159.505 148.197 159.647 148.601 159.77C149.005 159.893 149.393 160.044 149.793 160.148C150.193 160.252 150.585 160.361 150.998 160.461C151.43 160.564 151.85 160.723 152.249 160.934C153.033 161.348 153.718 161.96 154.25 162.722C153.566 162.206 152.827 161.788 152.049 161.478C151.668 161.341 151.276 161.241 150.879 161.18C150.453 161.104 150.027 161.014 149.623 160.896C148.796 160.648 147.991 160.318 147.217 159.912C146.424 159.499 145.755 158.838 145.293 158.01Z" fill="#4E4F50"/>
<path d="M165.234 156.809C163.105 155.428 157.022 151.876 149.227 153.162C146.283 153.653 143.449 154.762 140.879 156.431C138.226 147.116 137.356 137.288 138.324 127.578C144.531 125.601 151.296 125.052 160.496 125.076L165.234 156.809Z" fill="#657EBD"/>
<path d="M164.948 156.899C162.82 155.518 156.736 151.966 148.946 153.252C146.001 153.744 143.166 154.854 140.593 156.521C137.94 147.206 137.07 137.378 138.039 127.668C144.25 125.69 151.011 125.142 160.21 125.165L164.948 156.899Z" fill="#FCC01D"/>
<path d="M148.273 151.474C151.567 151.474 154.237 148.507 154.237 144.847C154.237 141.187 151.567 138.22 148.273 138.22C144.979 138.22 142.309 141.187 142.309 144.847C142.309 148.507 144.979 151.474 148.273 151.474Z" fill="#E97B24"/>
<path d="M165.234 156.809L160.576 125.643L160.249 125.085C158.618 125.085 157.064 125.085 155.566 125.137C154.338 126.814 152.982 128.369 151.513 129.787C157.252 136.73 158.397 148.011 158.865 153.834C161.097 154.508 163.239 155.508 165.234 156.809Z" fill="#E97B24"/>
<path d="M153.356 129.2C153.356 129.2 159.057 123.817 159.291 120.421C159.291 120.421 174.719 139.02 166.272 161.274C166.272 161.274 161.372 159.879 160.947 156.071C160.521 152.264 160.278 137.582 153.356 129.2Z" fill="#F2A01E"/>
<path d="M161.398 136.092C162.501 136.092 163.395 135.098 163.395 133.873C163.395 132.648 162.501 131.655 161.398 131.655C160.295 131.655 159.401 132.648 159.401 133.873C159.401 135.098 160.295 136.092 161.398 136.092Z" fill="#30302F"/>
<path d="M150.964 150.617C154.258 150.617 156.928 147.651 156.928 143.991C156.928 140.331 154.258 137.364 150.964 137.364C147.67 137.364 145 140.331 145 143.991C145 147.651 147.67 150.617 150.964 150.617Z" fill="#4E4F50"/>
<path d="M150.964 147.936C152.925 147.936 154.514 146.169 154.514 143.991C154.514 141.812 152.925 140.046 150.964 140.046C149.003 140.046 147.413 141.812 147.413 143.991C147.413 146.169 149.003 147.936 150.964 147.936Z" fill="#30302F"/>
<path d="M105.761 266.668C105.761 266.668 107.038 278.02 112.956 269.932L105.761 266.668Z" fill="#4E4F50"/>
<path d="M109.848 258.821C111.731 258.821 113.258 257.125 113.258 255.032C113.258 252.94 111.731 251.244 109.848 251.244C107.965 251.244 106.438 252.94 106.438 255.032C106.438 257.125 107.965 258.821 109.848 258.821Z" fill="#4E4F50"/>
<path d="M103.55 261.734L104.492 259.172C105.069 257.605 106.182 256.356 107.588 255.7C108.993 255.045 110.575 255.037 111.986 255.677C113.397 256.318 114.521 257.555 115.111 259.117C115.701 260.678 115.709 262.436 115.132 264.004L112.958 269.915L105.332 266.452C104.533 266.089 103.896 265.388 103.561 264.503C103.227 263.618 103.223 262.622 103.55 261.734Z" fill="#F6BE1D"/>
<path d="M118.159 211.049L125.832 213.892L114.754 250.808C114.414 251.941 113.683 252.877 112.721 253.411C111.76 253.945 110.647 254.033 109.627 253.655C108.607 253.277 107.764 252.465 107.284 251.397C106.803 250.329 106.724 249.092 107.064 247.959L118.143 211.043L118.159 211.049Z" fill="#375FAB"/>
<path d="M118.159 211.049L125.832 213.892L114.754 250.808C114.414 251.941 113.683 252.877 112.721 253.411C111.76 253.945 110.647 254.033 109.627 253.655C108.607 253.277 107.764 252.465 107.284 251.397C106.803 250.329 106.724 249.092 107.064 247.959L118.143 211.043L118.159 211.049Z" fill="#F6BE1D"/>
<path d="M111.692 254.011L110.878 253.732C113.241 245.298 118.903 225.38 120.368 222.514C120.735 221.732 121.247 221.045 121.87 220.498C122.493 219.951 123.212 219.557 123.982 219.34L124.178 220.262C123.523 220.45 122.91 220.789 122.381 221.258C121.852 221.726 121.419 222.314 121.108 222.982C119.644 225.843 113.535 247.455 111.692 254.011Z" fill="#F8E782"/>
<path d="M140.999 173.81L147.683 178.963L127.62 211.095C127.004 212.082 126.061 212.756 124.998 212.969C123.934 213.183 122.838 212.919 121.951 212.234C121.063 211.55 120.456 210.502 120.264 209.321C120.071 208.139 120.309 206.921 120.925 205.935L140.988 173.802L140.999 173.81Z" fill="#F6BE1D"/>
<path d="M120.691 223.701C125.137 223.701 128.741 219.696 128.741 214.756C128.741 209.816 125.137 205.812 120.691 205.812C116.245 205.812 112.641 209.816 112.641 214.756C112.641 219.696 116.245 223.701 120.691 223.701Z" fill="#4E4F50"/>
<path d="M120.683 219.704C123.156 219.704 125.161 217.476 125.161 214.728C125.161 211.98 123.156 209.752 120.683 209.752C118.209 209.752 116.204 211.98 116.204 214.728C116.204 217.476 118.209 219.704 120.683 219.704Z" fill="#30302F"/>
<path d="M157.2 233.605C157.2 231.893 156.025 231.903 156.012 230.19C156 228.478 157.166 228.464 157.153 226.752C157.141 225.039 155.966 225.044 155.966 223.337C155.966 221.629 157.115 221.615 157.102 219.903C157.09 218.19 155.932 218.2 155.919 216.487C155.906 214.775 157.068 214.766 157.055 213.054L142.062 212.945C142.062 214.657 140.912 214.666 140.925 216.379C140.938 218.091 142.1 218.082 142.109 219.794C142.117 221.506 140.959 221.515 140.972 223.228C140.985 224.94 142.147 224.931 142.16 226.643C142.172 228.355 141.006 228.369 141.019 230.082C141.032 231.794 142.194 231.784 142.207 233.501L157.2 233.605Z" fill="#838383"/>
<path d="M142.062 212.945C142.608 213.406 143.176 213.832 143.765 214.222C144.35 214.584 144.962 214.888 145.595 215.13C146.23 215.362 146.873 215.603 147.537 215.778C148.201 215.953 148.865 216.199 149.516 216.365C150.815 216.781 152.168 216.894 153.578 217.443C154.922 218.006 156.125 218.919 157.085 220.106C155.898 219.365 154.63 218.795 153.314 218.408C152.675 218.252 152.015 218.157 151.321 218.063C150.627 217.968 149.925 217.798 149.235 217.618C147.864 217.236 146.527 216.714 145.242 216.057C144.593 215.703 143.987 215.259 143.437 214.737C142.91 214.207 142.445 213.605 142.054 212.945H142.062ZM157.039 226.104C155.824 225.244 154.53 224.534 153.177 223.985C152.503 223.765 151.814 223.607 151.117 223.512C150.393 223.374 149.657 223.204 148.929 222.996C147.489 222.557 146.09 221.964 144.753 221.227C143.398 220.454 142.274 219.261 141.517 217.793C142.572 218.875 143.799 219.728 145.136 220.309C145.796 220.588 146.468 220.844 147.166 221.066C147.865 221.288 148.55 221.539 149.235 221.752C149.921 221.965 150.615 222.14 151.33 222.315C152.077 222.478 152.807 222.73 153.505 223.067C154.2 223.414 154.85 223.863 155.438 224.401C156.015 224.916 156.55 225.486 157.039 226.104ZM140.981 223.341C142.059 224.349 143.294 225.129 144.625 225.645C145.28 225.891 145.949 226.118 146.634 226.35C147.32 226.581 147.984 226.823 148.665 226.998C149.346 227.173 150.023 227.362 150.73 227.532C151.464 227.7 152.178 227.962 152.858 228.312C154.193 229.02 155.36 230.067 156.264 231.368C155.096 230.486 153.833 229.771 152.505 229.24C151.852 229.006 151.183 228.835 150.504 228.729C149.802 228.596 149.078 228.44 148.375 228.256C146.963 227.832 145.586 227.271 144.263 226.577C142.913 225.869 141.774 224.746 140.981 223.341Z" fill="#4E4F50"/>
<path d="M161.896 212.349L138.648 217.178C138.287 217.254 137.914 217.172 137.607 216.95C137.299 216.728 137.08 216.383 136.996 215.986L128.609 177.096C128.559 176.862 128.557 176.618 128.603 176.383C128.65 176.148 128.743 175.928 128.877 175.739L137.703 163.327C137.838 163.137 138.01 162.985 138.206 162.88C138.402 162.775 138.617 162.721 138.835 162.722C142.121 162.755 145.706 162.949 149.542 163.407C153.777 163.909 157.982 164.687 162.134 165.739C162.363 165.795 162.575 165.913 162.752 166.084C162.929 166.254 163.065 166.47 163.147 166.714C168.167 181.092 168.1 197.049 162.96 211.374C162.871 211.623 162.726 211.843 162.54 212.013C162.354 212.183 162.133 212.299 161.896 212.349Z" fill="#F6BE1D"/>
<path d="M132.628 170.867L129.167 175.738C129.032 175.927 128.938 176.147 128.891 176.382C128.843 176.618 128.845 176.862 128.895 177.096L137.281 215.986C137.368 216.382 137.587 216.727 137.896 216.949C138.204 217.17 138.576 217.252 138.937 217.178L162.181 212.349C162.419 212.299 162.641 212.184 162.828 212.013C163.014 211.843 163.16 211.623 163.25 211.374C163.531 210.584 163.82 209.728 164.101 208.815C142.615 201.247 135.008 180.256 132.628 170.867Z" fill="#EE9E23"/>
<path d="M138.422 162.722C138.422 162.722 128.72 195.316 144.31 216.057M141.517 162.986C141.517 162.986 141.219 163.975 140.823 165.72" stroke="#4E4F50" stroke-width="2" stroke-miterlimit="10"/>
<path d="M139.789 171.056C138.243 180.696 137.234 197.217 144.761 210.788" stroke="#4E4F50" stroke-width="2" stroke-miterlimit="10" stroke-dasharray="11.55 11.55"/>
<path d="M146.123 213.049C146.611 213.812 147.132 214.561 147.686 215.296" stroke="#4E4F50" stroke-width="2" stroke-miterlimit="10"/>
<path d="M156.072 214.099L155.779 210.168C155.647 208.324 156.116 206.488 157.101 204.996C158.085 203.503 159.52 202.453 161.142 202.037L166.532 200.675L166.396 201.394C165.685 205.147 164.664 208.819 163.343 212.363L163.254 212.599L156.072 214.099ZM165.438 201.929L161.347 202.96C159.924 203.325 158.667 204.246 157.804 205.554C156.941 206.862 156.529 208.471 156.643 210.088L156.86 212.973L162.662 211.772C163.83 208.583 164.753 205.29 165.421 201.929H165.438Z" fill="#F8E782"/>
<path d="M138.669 218.152C138.156 218.15 137.659 217.957 137.257 217.604C136.855 217.25 136.571 216.757 136.451 216.204L128.069 177.318C127.986 176.945 127.982 176.556 128.055 176.18C128.129 175.805 128.279 175.453 128.495 175.152L137.315 162.74C137.534 162.443 137.81 162.203 138.123 162.039C138.436 161.876 138.779 161.792 139.125 161.794C142.713 161.828 146.362 162.059 149.912 162.485C154.182 162.998 158.42 163.788 162.607 164.85C162.971 164.941 163.31 165.13 163.592 165.402C163.874 165.674 164.092 166.019 164.225 166.406C169.321 181.005 169.255 197.207 164.037 211.753C163.895 212.151 163.665 212.503 163.367 212.775C163.069 213.047 162.714 213.231 162.335 213.309L139.086 218.138C138.948 218.159 138.808 218.164 138.669 218.152ZM139.095 163.668C139.008 163.668 138.922 163.69 138.844 163.733C138.766 163.775 138.697 163.837 138.644 163.914L129.831 176.325C129.777 176.401 129.739 176.491 129.721 176.586C129.702 176.681 129.704 176.779 129.725 176.874L138.107 215.764C138.144 215.923 138.235 216.06 138.36 216.148C138.484 216.235 138.635 216.267 138.78 216.237L162.024 211.407C162.118 211.386 162.207 211.339 162.281 211.271C162.355 211.202 162.413 211.114 162.449 211.015C167.51 196.904 167.575 181.188 162.633 167.026C162.598 166.925 162.541 166.836 162.466 166.767C162.392 166.699 162.302 166.652 162.207 166.633C158.086 165.591 153.914 164.819 149.712 164.32C146.196 163.899 142.62 163.672 139.069 163.639L139.095 163.668Z" fill="#EE9E23"/>
<path d="M153.028 188.67C157.474 188.67 161.079 184.666 161.079 179.726C161.079 174.786 157.474 170.781 153.028 170.781C148.582 170.781 144.978 174.786 144.978 179.726C144.978 184.666 148.582 188.67 153.028 188.67Z" fill="#30302F"/>
<path d="M234.782 193.854C234.782 193.854 242.714 186.542 242.02 196.957L234.782 193.854Z" fill="#4E4F50"/>
<path d="M228.295 205.925C230.178 205.925 231.705 204.229 231.705 202.137C231.705 200.044 230.178 198.348 228.295 198.348C226.411 198.348 224.885 200.044 224.885 202.137C224.885 204.229 226.411 205.925 228.295 205.925Z" fill="#4E4F50"/>
<path d="M242.048 196.972L239.985 202.933C239.438 204.513 238.348 205.788 236.956 206.476C235.563 207.164 233.981 207.209 232.558 206.601C231.136 205.994 229.989 204.783 229.369 203.235C228.75 201.688 228.71 199.93 229.257 198.35L230.149 195.771C230.459 194.876 231.076 194.153 231.865 193.763C232.655 193.374 233.551 193.348 234.357 193.692L242.046 196.977L242.048 196.972Z" fill="#EE9E23"/>
<path d="M189.546 215.128L188.106 206.285L222.567 199.361C223.625 199.149 224.715 199.412 225.598 200.092C226.481 200.773 227.085 201.816 227.276 202.991C227.467 204.166 227.231 205.378 226.618 206.359C226.005 207.34 225.067 208.011 224.009 208.223L189.549 215.147L189.546 215.128Z" fill="#375FAB"/>
<path d="M189.546 215.128L188.106 206.285L222.567 199.361C223.625 199.149 224.715 199.412 225.598 200.092C226.481 200.773 227.085 201.816 227.276 202.991C227.467 204.166 227.231 205.378 226.618 206.359C226.005 207.34 225.067 208.011 224.009 208.223L189.549 215.147L189.546 215.128Z" fill="#EE9E23"/>
<path d="M197.647 207.482H197.575C196.779 207.502 195.988 207.334 195.254 206.99C194.52 206.646 193.86 206.133 193.318 205.486L193.952 204.852C194.415 205.4 194.977 205.834 195.602 206.124C196.226 206.414 196.898 206.554 197.575 206.536H197.639C200.806 206.536 220.568 202.174 226.587 200.831L226.753 201.777C219.035 203.485 200.815 207.482 197.647 207.482Z" fill="#F8E782"/>
<path d="M152.084 182.385L157.846 175.983L182.734 203.636C183.113 204.057 183.413 204.556 183.618 205.105C183.822 205.654 183.928 206.243 183.928 206.837C183.928 207.431 183.822 208.02 183.618 208.569C183.413 209.118 183.113 209.617 182.734 210.038C182.356 210.458 181.907 210.792 181.413 211.019C180.918 211.247 180.389 211.364 179.854 211.364C179.319 211.364 178.789 211.247 178.294 211.019C177.8 210.792 177.351 210.458 176.973 210.038L152.084 182.385Z" fill="#EE9E23"/>
<path d="M184.736 220.844C189.182 220.844 192.786 216.839 192.786 211.899C192.786 206.96 189.182 202.955 184.736 202.955C180.29 202.955 176.685 206.96 176.685 211.899C176.685 216.839 180.29 220.844 184.736 220.844Z" fill="#4E4F50"/>
<path d="M184.706 216.875C187.179 216.875 189.184 214.648 189.184 211.899C189.184 209.151 187.179 206.923 184.706 206.923C182.232 206.923 180.227 209.151 180.227 211.899C180.227 214.648 182.232 216.875 184.706 216.875Z" fill="#30302F"/>
<path d="M155.779 188.713C160.246 188.713 163.867 184.689 163.867 179.726C163.867 174.763 160.246 170.739 155.779 170.739C151.311 170.739 147.69 174.763 147.69 179.726C147.69 184.689 151.311 188.713 155.779 188.713Z" fill="#4E4F50"/>
<path d="M155.778 184.726C158.264 184.726 160.278 182.487 160.278 179.726C160.278 176.965 158.264 174.726 155.778 174.726C153.293 174.726 151.279 176.965 151.279 179.726C151.279 182.487 153.293 184.726 155.778 184.726Z" fill="#30302F"/>
<path d="M40.2481 277.074C39.8223 277.594 39.3668 278.782 38.9709 280.049L38.7538 266.512C39.2458 263.369 40.1887 260.335 41.5465 257.525L40.5971 256.905C39.8187 258.474 39.1786 260.123 38.6857 261.829L38.0939 223.625C38.4388 221.227 39.1795 218.465 39.75 218.143L39.2519 217.05C38.7581 217.329 38.3494 218.081 38.0216 218.99L37.8555 208.465L36.7657 208.489L36.8551 213.985C36.486 212.97 35.9948 212.016 35.3949 211.147L34.5435 211.942C34.5435 211.942 36.3528 214.383 36.9232 218.952L37.7747 273.493C36.8177 270.753 35.5287 268.17 33.9432 265.817L33.0918 266.578C33.1301 266.635 36.9232 272.018 37.8853 278.318L38.0131 286.217H39.1157L39.0859 284.448C39.5116 282.315 40.4354 278.725 41.0782 277.968L40.2481 277.074Z" fill="#A4B5DD"/>
<path d="M10.1075 232.579C9.86482 231.907 11.1207 230.422 13.6366 227.48C16.0547 224.642 17.2595 223.247 18.5792 222.277C19.7967 221.388 22.5639 219.439 26.3485 219.235C29.1752 219.098 28.2727 220.181 35.0884 221.686C36.6933 222.045 38.4558 222.371 39.3242 223.942C39.4179 224.112 40.065 225.29 39.6776 226.307C39.2008 227.551 37.5192 227.57 34.8244 228.17C33.7687 228.407 35.5226 228.071 28.2003 230.327C24.3945 231.505 22.4915 232.092 21.6699 232.29C20.8482 232.489 10.9163 234.844 10.1075 232.579Z" fill="#C4CFE6"/>
<path d="M12.8235 230.72C13.523 230.166 14.2702 229.691 15.0542 229.301C15.4246 229.112 15.7992 228.927 16.1739 228.766C16.5464 228.59 16.9325 228.45 17.3275 228.35C18.1279 228.156 19.0304 228.118 19.7754 227.745C20.537 227.345 21.2232 226.788 21.7975 226.103C22.1041 225.768 22.4148 225.422 22.7511 225.115C23.0876 224.81 23.4401 224.527 23.8069 224.268C24.5231 223.718 25.2893 223.254 26.093 222.882C27.7351 222.162 29.5092 221.891 31.2654 222.092L31.3208 222.319C30.6349 222.905 29.9137 223.437 29.1624 223.914C28.4429 224.387 27.7235 224.807 26.9955 225.2C26.2675 225.593 25.5055 225.9 24.752 226.241C23.9878 226.608 23.2045 226.924 22.4063 227.187C21.5924 227.473 20.8165 227.879 20.0989 228.393C19.388 228.904 18.7537 229.656 17.9959 230.162C17.6205 230.411 17.2167 230.604 16.7954 230.734C16.3775 230.876 15.9506 230.982 15.5183 231.051C14.6333 231.212 13.7281 231.172 12.8575 230.933L12.8235 230.72Z" fill="#A4B5DD"/>
<path d="M33.9389 267.69C34.4455 267.321 33.9006 266.081 32.9683 261.02C31.8785 255.084 32.1637 254.29 31.1164 252.506C30.1415 250.837 28.8772 249.924 26.3484 248.093C24.1927 246.581 21.9119 245.301 19.537 244.271C15.3267 242.28 15.4885 242.852 13.2705 241.623C8.44715 238.931 6.45907 235.535 5.50547 236.226C5.07975 236.524 5.14786 237.366 5.68 240.639C6.55272 246.04 6.99121 248.736 7.44672 249.664C9.01335 252.861 11.606 254.294 15.1096 256.234C19.5328 258.674 20.15 257.653 23.8452 259.668C30.2224 263.083 32.8746 268.47 33.9389 267.69Z" fill="#DDE6F4"/>
<path d="M7.36574 239.57C8.47685 240.421 9.46025 241.325 10.4436 242.219L11.8996 243.552C12.3892 243.992 12.8575 244.456 13.313 244.943C14.2197 245.927 15.0797 247.043 16.1397 247.852C17.2093 248.657 18.3818 249.279 19.6178 249.697C20.2308 249.929 20.8609 250.127 21.4611 250.359C22.0614 250.591 22.6617 250.832 23.2619 251.059C23.8622 251.286 24.4752 251.499 25.118 251.773C25.7987 252.059 26.4416 252.446 27.0295 252.923C28.1447 253.878 29.0805 255.067 29.7839 256.423C30.4826 257.728 30.9386 259.175 31.1249 260.68L30.929 260.774C30.1542 259.649 29.3257 258.571 28.4471 257.544C27.6089 256.596 26.6924 255.738 25.7098 254.98C25.2368 254.626 24.7417 254.31 24.2283 254.034L22.4914 253.088C21.8901 252.777 21.3046 252.43 20.7374 252.048C20.167 251.669 19.6348 251.234 19.0942 250.818C18.0345 249.953 16.9268 249.163 15.7778 248.453C14.6369 247.753 13.3598 247.237 12.2231 246.447C11.6575 246.052 11.1297 245.594 10.648 245.08C10.1571 244.577 9.69631 244.038 9.26868 243.467C8.39603 242.341 7.69695 241.063 7.19971 239.683L7.36574 239.57Z" fill="#A4B5DD"/>
<path d="M40.1203 279.264C39.0135 278.848 40.0011 272.642 40.4737 269.653C41.2825 264.535 41.6912 261.976 43.2962 259.649C45.8206 255.997 49.5158 254.744 51.24 254.157C54.4712 253.06 54.9309 253.992 59.0987 252.786C63.3558 251.551 65.1268 249.947 65.8079 250.723C66.5955 251.669 65.0842 254.923 63.4239 257.099C61.7636 259.275 60.1289 260.164 56.6125 262.302C52.3 264.932 50.1416 266.247 49.286 266.909C42.6916 272.056 41.3506 279.728 40.1203 279.264Z" fill="#C4CFE6"/>
<path d="M40.9844 275.433C40.6899 274.143 40.6034 272.806 40.729 271.483C40.7631 271.152 40.8056 270.826 40.8525 270.495C40.8993 270.163 40.9717 269.842 41.0483 269.52C41.1249 269.199 41.2143 268.877 41.3165 268.574C41.4187 268.271 41.5634 267.955 41.7039 267.657C42.3519 266.52 43.1115 265.466 43.9687 264.516C44.3646 264.043 44.7605 263.57 45.1735 263.097C45.5894 262.609 46.03 262.148 46.4932 261.716C47.3867 260.883 48.3423 260.136 49.3497 259.483C50.3204 258.811 51.2867 258.145 52.2999 257.567C53.317 256.987 54.3615 256.467 55.4289 256.011C56.5171 255.535 57.6373 255.156 58.7793 254.876L58.8857 255.079C58.0697 256.012 57.187 256.869 56.2463 257.643C55.3259 258.414 54.3696 259.131 53.3812 259.791C52.379 260.415 51.3441 260.973 50.282 261.46C49.7542 261.716 49.2348 261.981 48.6941 262.193C48.1535 262.406 47.6128 262.61 47.0934 262.827C46.0477 263.24 45.1433 264.004 44.5051 265.012C43.8623 266.029 43.6239 267.288 43.3429 268.437C43.279 268.73 43.1982 269.019 43.1173 269.303C43.0364 269.586 42.9512 269.87 42.8618 270.154L42.3552 271.871C42.0269 273.091 41.6403 274.291 41.1973 275.466L40.9844 275.433Z" fill="#A4B5DD"/>
<path d="M40.3758 257.818C39.95 257.515 39.4945 256.74 40.6397 248.599C41.4486 242.881 41.8487 240.019 42.4958 238.397C44.0795 234.414 46.4081 232.248 51.0569 227.906C53.2877 225.824 58.9965 220.499 60.1502 221.629C61.057 222.513 58.7709 227.021 58.1195 228.298C55.7909 232.877 54.4584 232.659 53.0876 236.046C51.6614 239.575 52.862 240.426 51.3209 245.657C50.7547 247.582 50.0437 250 48.3196 252.426C46.0207 255.699 41.9552 258.968 40.3758 257.818Z" fill="#DDE6F4"/>
<path d="M42.5681 253.467C42.5761 251.982 42.7636 250.506 43.1258 249.077C43.3003 248.368 43.5004 247.658 43.7303 246.986C43.958 246.29 44.243 245.619 44.5817 244.981C44.9223 244.333 45.3225 243.761 45.6716 243.169C46.4019 241.984 46.9221 240.655 47.2041 239.253C47.3531 238.553 47.417 237.834 47.5149 237.101C47.6031 236.315 47.7909 235.548 48.0726 234.821C48.2134 234.456 48.3785 234.104 48.5664 233.766C48.7656 233.417 48.9876 233.085 49.2305 232.773C49.7073 232.158 50.1714 231.652 50.6311 231.146C51.0909 230.64 51.5549 230.157 52.0317 229.679C52.9853 228.733 53.9659 227.809 54.9734 226.908C55.9888 225.978 57.0459 225.107 58.1407 224.297L58.3025 224.453C57.6994 225.772 56.9867 227.026 56.1739 228.199C55.3823 229.37 54.5159 230.477 53.5813 231.51C53.1131 232.021 52.6235 232.517 52.1169 232.976C51.6103 233.435 51.0994 233.884 50.678 234.31C50.4684 234.517 50.2721 234.74 50.0905 234.977C49.9074 235.218 49.7286 235.488 49.5456 235.748C49.1813 236.277 48.8715 236.85 48.6218 237.455C48.0882 238.786 47.6262 240.151 47.2382 241.542C47.0424 242.238 46.9019 242.961 46.7359 243.68C46.5698 244.399 46.3868 245.132 46.1824 245.794C45.9819 246.465 45.7503 247.123 45.4885 247.767C45.2331 248.42 44.9606 249.063 44.6839 249.706C44.1271 251.028 43.4884 252.305 42.7725 253.528L42.5681 253.467Z" fill="#A4B5DD"/>
<path d="M37.119 208.863C35.9185 208.413 36.0547 204.066 36.1484 201.016C36.208 199.005 36.4038 197.988 36.3229 195.524C36.279 194.144 36.161 192.768 35.9696 191.404C35.4672 187.899 34.6669 186.523 34.2071 184.536C33.3174 180.729 34.288 177.408 35.7056 172.574C37.1871 167.518 38.4089 167.035 38.6175 163.256C38.7112 161.567 38.592 159.396 39.3242 159.136C39.801 158.966 40.431 159.666 40.9121 160.314C45.9824 167.059 46.9147 178.553 46.9147 178.553C47.2212 182.337 47.3915 184.418 46.8295 187.284C46.2931 190.014 45.6673 190.51 44.0922 195.798C42.8746 199.904 43.0705 200.202 42.2361 202.174C40.9078 205.339 38.3876 209.336 37.119 208.863ZM19.0219 173.653C19.3965 173.369 20.1968 173.998 21.4953 175.024C24.1379 177.118 26.1393 180.061 27.2296 183.458C27.5958 184.645 27.5191 184.853 28.2003 188.661C28.626 191.002 28.8388 192.185 29.0858 192.781C29.801 194.521 30.4821 194.729 32.0658 197C33.1811 198.575 34.0879 199.838 34.7137 201.706C35.1394 202.926 34.9776 203.097 35.5098 208.375C35.8333 211.606 35.961 212.249 35.5779 212.561C34.4072 213.507 30.5119 209.638 30.0436 209.161C27.8384 206.961 23.6579 202.785 22.0998 195.723C20.8226 189.853 22.9044 189.039 21.3037 182.384C20.2139 177.787 18.2684 174.225 19.0219 173.653Z" fill="#DDE6F4"/>
<path d="M23.0279 178.217C23.9609 179.404 24.6612 180.794 25.0841 182.299C25.3083 183.049 25.4707 183.82 25.5694 184.602C25.6797 185.385 25.6954 186.18 25.6162 186.967C25.5396 187.734 25.4161 188.443 25.3438 189.176C25.2714 189.912 25.2714 190.654 25.3438 191.39C25.5044 192.865 25.9131 194.293 26.5486 195.6C26.8465 196.262 27.1956 196.9 27.5022 197.577C27.8087 198.253 28.0939 198.892 28.4047 199.516C28.7094 200.126 29.0463 200.715 29.4136 201.28C29.7882 201.843 30.1544 202.392 30.5545 202.898C30.9547 203.404 31.406 203.958 31.8657 204.544C32.3255 205.131 32.7427 205.736 33.1429 206.36C33.3472 206.668 33.5345 206.99 33.7176 207.306C33.9006 207.623 34.0794 207.964 34.2497 208.295C34.5988 208.962 34.9266 209.638 35.2161 210.343L35.0458 210.49C33.9478 209.593 32.8974 208.626 31.8998 207.595L30.38 206.162C29.8462 205.668 29.3361 205.144 28.8517 204.591C28.3487 203.995 27.9074 203.339 27.5362 202.633C27.1643 201.942 26.8412 201.219 26.5698 200.472C26.0563 199.034 25.6741 197.543 25.4289 196.021C25.1692 194.493 24.9479 192.998 24.6499 191.513C24.5094 190.766 24.3221 190.018 24.1731 189.252C24.0243 188.495 23.9149 187.729 23.8453 186.958C23.7814 186.225 23.7431 185.539 23.692 184.834C23.6409 184.129 23.5643 183.415 23.4749 182.71C23.3003 181.291 23.0492 179.872 22.8406 178.312L23.0279 178.217ZM40.0437 161.842C40.4974 162.646 40.8579 163.51 41.1165 164.415C41.392 165.324 41.572 166.265 41.6529 167.22C41.6984 167.707 41.714 168.197 41.6997 168.686C41.6997 169.159 41.6657 169.632 41.6401 170.058C41.5975 170.956 41.5379 171.85 41.4273 172.754C41.2059 174.57 40.7759 176.33 40.9036 178.127C41.0313 179.924 41.6444 181.632 41.9807 183.491C42.1676 184.407 42.3097 185.334 42.4064 186.267C42.4944 187.21 42.5285 188.158 42.5086 189.105C42.5129 191.02 42.2442 192.923 41.7125 194.744C41.2314 196.484 40.7163 198.187 40.2055 199.918C39.7079 201.672 39.1223 203.393 38.4515 205.074L38.2429 205.027C38.2562 203.175 38.3656 201.325 38.5707 199.488C38.6601 198.57 38.8176 197.662 38.9709 196.754C39.1241 195.846 39.32 194.947 39.5243 194.062C39.7287 193.178 39.95 192.336 40.1246 191.522C40.2918 190.679 40.4183 189.827 40.5035 188.968C40.5929 188.093 40.6439 187.213 40.695 186.324C40.7461 185.435 40.81 184.541 40.8142 183.642C40.833 182.743 40.7774 181.844 40.6482 180.956C40.512 180.066 40.3374 179.149 40.2225 178.226C39.9326 176.388 39.7449 174.532 39.6606 172.669C39.6323 171.747 39.6636 170.823 39.7542 169.906C39.7968 169.433 39.8564 168.984 39.8989 168.554C39.9415 168.123 39.9798 167.721 40.0011 167.286C40.0394 166.42 40.0309 165.545 40.0011 164.656C39.9713 163.767 39.8947 162.868 39.8393 161.932L40.0437 161.842Z" fill="#A4B5DD"/>
<path d="M39.3199 217.779C38.0427 215.679 40.9078 211.346 41.7039 210.126C43.215 207.727 45.3362 205.884 47.7959 204.833C48.8303 204.417 50.4566 204.227 53.709 203.849C56.5741 203.518 56.6081 203.641 59.0943 203.376C63.4877 202.903 65.6801 202.633 67.2169 202.198C68.4175 201.858 70.7248 201.11 72.6022 201.999C73.0875 202.231 73.36 202.472 73.3941 202.785C73.4664 203.418 72.4617 204.019 71.2655 204.748C71.2655 204.748 69.1114 206.072 66.9402 207.496C65.4643 208.371 64.0988 209.459 62.8789 210.731C61.2825 212.467 61.4528 213.072 59.8776 214.652C58.8274 215.703 57.635 216.563 56.3442 217.202C54.1518 218.256 52.4319 218.105 49.7243 218.086C41.8231 218.015 40.1458 219.16 39.3199 217.779Z" fill="#DDE6F4"/>
<path d="M40.1331 215.92C40.9193 214.673 41.9207 213.612 43.079 212.798C43.6529 212.383 44.2566 212.02 44.884 211.715C45.5066 211.4 46.1593 211.166 46.8295 211.015C48.1727 210.805 49.5262 210.688 50.8823 210.665C51.5507 210.613 52.2319 210.608 52.8534 210.513C53.4713 210.396 54.0734 210.192 54.6457 209.908C55.2331 209.634 55.7993 209.298 56.3485 208.962C56.8977 208.626 57.4767 208.338 58.0216 208.016C58.5665 207.694 59.0986 207.316 59.5967 206.942C60.0948 206.569 60.5929 206.157 61.1676 205.736C62.3318 204.885 63.6109 204.247 64.9565 203.844C66.2766 203.443 67.6487 203.296 69.0135 203.409L69.0518 203.641C67.8385 204.298 66.6721 204.894 65.5737 205.575C64.491 206.242 63.4474 206.985 62.449 207.798C61.9039 208.246 61.3353 208.656 60.7461 209.028C60.1396 209.403 59.511 209.732 58.8645 210.012C58.2339 210.305 57.5851 210.547 56.9232 210.736C56.2578 210.917 55.5823 211.048 54.9011 211.128C54.2199 211.209 53.5388 211.261 52.8534 211.275C52.2032 211.25 51.5522 211.288 50.9079 211.388C49.6307 211.63 48.4558 212.334 47.3021 212.864C46.7189 213.143 46.1356 213.394 45.5481 213.626C44.9607 213.858 44.3902 214.122 43.807 214.392C42.6363 214.922 41.4826 215.518 40.2139 216.071L40.1331 215.92Z" fill="#A4B5DD"/>
<path d="M55.5992 328.806H21.1078L17.4126 311.537L28.5025 281.255H48.2045L59.2944 311.537L55.5992 328.806Z" fill="#B2C2E3"/>
<path opacity="0.47" d="M48.2045 281.255H38.3535V328.806H55.5992L59.2944 311.537L48.2045 281.255Z" fill="url(#paint8_linear_102_6687)"/>
<path d="M55.7099 328.806H21.0142L38.3535 310.468L55.7099 328.806Z" fill="url(#paint9_linear_102_6687)"/>
<path d="M239.712 328.806H208.162C207.853 328.81 207.553 328.688 207.318 328.465C207.083 328.241 206.93 327.931 206.885 327.59L200.925 278.834C200.903 278.635 200.919 278.434 200.972 278.242C201.024 278.051 201.113 277.874 201.232 277.724C201.35 277.573 201.496 277.452 201.66 277.369C201.823 277.286 202.001 277.241 202.181 277.24H245.693C245.873 277.242 246.05 277.287 246.213 277.37C246.377 277.454 246.522 277.575 246.64 277.726C246.758 277.876 246.846 278.053 246.899 278.244C246.951 278.434 246.967 278.636 246.945 278.834L240.964 327.59C240.92 327.926 240.77 328.233 240.54 328.456C240.311 328.678 240.017 328.803 239.712 328.806Z" fill="#A8B9DF"/>
<path d="M243.773 273.914H244.718C244.977 273.914 245.225 274.029 245.408 274.232C245.591 274.435 245.693 274.71 245.693 274.998V277.24H242.811V274.998C242.811 274.713 242.912 274.439 243.092 274.237C243.272 274.034 243.517 273.918 243.773 273.914ZM203.709 273.914H204.654C204.913 273.914 205.161 274.029 205.344 274.232C205.527 274.435 205.629 274.71 205.629 274.998V277.24H202.739V274.998C202.739 274.71 202.841 274.435 203.024 274.232C203.207 274.029 203.455 273.914 203.714 273.914H203.709Z" fill="#336297"/>
<path opacity="0.47" d="M213.829 291.094C213.84 286.191 215.093 281.39 217.443 277.24H202.181C202.001 277.241 201.823 277.286 201.66 277.369C201.496 277.452 201.35 277.573 201.232 277.724C201.113 277.874 201.024 278.051 200.972 278.242C200.919 278.434 200.903 278.635 200.925 278.834L206.885 327.59C206.93 327.931 207.083 328.241 207.318 328.465C207.553 328.688 207.853 328.81 208.162 328.806H239.712C240.017 328.803 240.311 328.678 240.54 328.456C240.77 328.233 240.92 327.926 240.964 327.59L241.866 320.25C226.208 319.124 213.829 306.504 213.829 291.094Z" fill="url(#paint10_linear_102_6687)"/>
<path d="M201.658 284.084C200.385 285.208 199.174 286.415 198.03 287.698C196.884 288.962 195.883 290.379 195.05 291.917C194.65 292.664 194.323 293.457 194.076 294.282C193.853 295.091 193.77 295.94 193.833 296.784C193.906 297.603 194.182 298.384 194.629 299.04C195.092 299.697 195.672 300.241 196.332 300.639C197.003 301.051 197.718 301.369 198.46 301.585C199.218 301.825 199.99 301.999 200.772 302.105C202.355 302.325 203.952 302.387 205.544 302.29C208.757 302.1 211.944 301.553 215.059 300.658C218.191 299.798 221.264 298.691 224.254 297.347C227.267 296.03 230.196 294.488 233.02 292.73C235.848 291.004 238.484 288.914 240.874 286.506C242.068 285.308 243.093 283.918 243.914 282.381C244.317 281.609 244.605 280.768 244.765 279.893C244.925 279.01 244.878 278.097 244.629 277.24C244.936 278.086 245.043 279.006 244.94 279.912C244.829 280.827 244.585 281.715 244.216 282.542C243.456 284.176 242.479 285.673 241.317 286.983C238.986 289.571 236.368 291.819 233.527 293.672C230.71 295.551 227.771 297.195 224.736 298.591C221.694 299.999 218.564 301.156 215.37 302.053C212.164 302.957 208.883 303.491 205.578 303.647C203.915 303.717 202.249 303.619 200.602 303.354C199.768 303.221 198.946 303.016 198.141 302.739C197.321 302.468 196.534 302.083 195.8 301.594C195.038 301.1 194.375 300.437 193.854 299.646C193.332 298.832 193.027 297.871 192.973 296.874C192.935 295.91 193.064 294.946 193.352 294.036C193.646 293.16 194.029 292.323 194.493 291.543C195.421 290.025 196.515 288.642 197.75 287.423C198.973 286.201 200.28 285.084 201.658 284.084Z" fill="#336297"/>
<path d="M248.107 277.24H199.763C198.846 277.24 198.103 278.066 198.103 279.084C198.103 280.103 198.846 280.929 199.763 280.929H248.107C249.024 280.929 249.767 280.103 249.767 279.084C249.767 278.066 249.024 277.24 248.107 277.24Z" fill="#C4CFE6"/>
<path d="M469.922 176.283H380.236C379.531 176.283 378.959 176.918 378.959 177.702V318.641C378.959 319.425 379.531 320.06 380.236 320.06H469.922C470.627 320.06 471.199 319.425 471.199 318.641V177.702C471.199 176.918 470.627 176.283 469.922 176.283Z" fill="#A7B8DE"/>
<path d="M458.304 177.702V318.656C458.304 319.032 458.169 319.393 457.93 319.659C457.69 319.925 457.365 320.075 457.027 320.075H368.478C368.139 320.075 367.814 319.925 367.575 319.659C367.335 319.393 367.201 319.032 367.201 318.656V177.702C367.201 177.325 367.335 176.964 367.575 176.698C367.814 176.432 368.139 176.283 368.478 176.283H457.027C457.365 176.283 457.69 176.432 457.93 176.698C458.169 176.964 458.304 177.325 458.304 177.702Z" fill="#E6EAF5"/>
<path d="M447.465 254.058H379.202C378.496 254.058 377.925 254.693 377.925 255.477V274.189C377.925 274.972 378.496 275.608 379.202 275.608H447.465C448.17 275.608 448.742 274.972 448.742 274.189V255.477C448.742 254.693 448.17 254.058 447.465 254.058Z" fill="#C4CEE5"/>
<path d="M447.465 284.912H379.202C378.496 284.912 377.925 285.547 377.925 286.331V305.043C377.925 305.826 378.496 306.462 379.202 306.462H447.465C448.17 306.462 448.742 305.826 448.742 305.043V286.331C448.742 285.547 448.17 284.912 447.465 284.912Z" fill="#C4CEE5"/>
<path d="M447.465 223.209H379.202C378.496 223.209 377.925 223.844 377.925 224.628V243.34C377.925 244.123 378.496 244.759 379.202 244.759H447.465C448.17 244.759 448.742 244.123 448.742 243.34V224.628C448.742 223.844 448.17 223.209 447.465 223.209Z" fill="#C4CEE5"/>
<path d="M425.119 244.759H401.548C401.548 243.316 402.063 241.932 402.982 240.912C403.9 239.892 405.145 239.319 406.443 239.319H420.228C421.526 239.319 422.772 239.892 423.69 240.912C424.608 241.932 425.124 243.316 425.124 244.759H425.119Z" fill="#E6EAF5"/>
<path d="M447.465 190.856H379.202C378.496 190.856 377.925 191.491 377.925 192.275V210.986C377.925 211.77 378.496 212.405 379.202 212.405H447.465C448.17 212.405 448.742 211.77 448.742 210.986V192.275C448.742 191.491 448.17 190.856 447.465 190.856Z" fill="#C4CEE5"/>
<path d="M425.119 212.406H401.548C401.548 210.963 402.063 209.579 402.982 208.559C403.9 207.539 405.145 206.966 406.443 206.966H420.228C421.526 206.966 422.772 207.539 423.69 208.559C424.608 209.579 425.124 210.963 425.124 212.406H425.119Z" fill="#E6EAF5"/>
<path d="M425.119 275.608H401.548C401.548 274.165 402.063 272.782 402.982 271.761C403.9 270.741 405.145 270.168 406.443 270.168H420.228C421.526 270.168 422.772 270.741 423.69 271.761C424.608 272.782 425.124 274.165 425.124 275.608H425.119Z" fill="#E6EAF5"/>
<path d="M425.119 306.462H401.548C401.548 305.019 402.063 303.635 402.982 302.615C403.9 301.595 405.145 301.022 406.443 301.022H420.228C421.526 301.022 422.772 301.595 423.69 302.615C424.608 303.635 425.124 305.019 425.124 306.462H425.119Z" fill="#E6EAF5"/>
<path d="M374.357 328.806H372.161C372.01 328.807 371.861 328.774 371.722 328.71C371.582 328.647 371.456 328.553 371.35 328.435C371.243 328.317 371.159 328.176 371.101 328.021C371.044 327.867 371.015 327.701 371.015 327.534V320.06H378.887L375.387 328.101C375.292 328.314 375.145 328.493 374.963 328.617C374.781 328.742 374.571 328.807 374.357 328.806Z" fill="#C4CEE5"/>
<path d="M387.278 328.806H385.081C384.93 328.807 384.781 328.774 384.642 328.71C384.503 328.647 384.376 328.553 384.27 328.435C384.163 328.317 384.079 328.176 384.022 328.021C383.964 327.867 383.935 327.701 383.936 327.534V320.06H391.812L388.312 328.101C388.216 328.315 388.069 328.494 387.886 328.618C387.703 328.743 387.492 328.808 387.278 328.806Z" fill="#A7B8DE"/>
<path d="M453.272 328.806H455.473C455.623 328.806 455.772 328.773 455.911 328.709C456.05 328.645 456.176 328.552 456.283 328.433C456.389 328.315 456.473 328.175 456.531 328.021C456.588 327.866 456.618 327.701 456.618 327.534V320.06H448.742L452.246 328.101C452.34 328.314 452.486 328.493 452.667 328.618C452.849 328.743 453.058 328.808 453.272 328.806Z" fill="#C4CEE5"/>
<path d="M466.265 328.806H468.466C468.616 328.806 468.765 328.773 468.903 328.709C469.042 328.645 469.168 328.551 469.274 328.433C469.38 328.315 469.464 328.175 469.521 328.02C469.578 327.866 469.607 327.701 469.607 327.534V320.06H461.735L465.234 328.101C465.33 328.314 465.477 328.493 465.659 328.617C465.841 328.742 466.051 328.807 466.265 328.806Z" fill="#A7B8DE"/>
<path opacity="0.42" d="M416.639 176.283L392.625 320.06H373.604L397.622 176.283H416.639Z" fill="#F2F6FB"/>
<path opacity="0.42" d="M457.52 176.391L433.531 320.06H402.454L426.469 176.268H457.031C457.2 176.273 457.366 176.315 457.52 176.391Z" fill="#F2F6FB"/>
<path d="M441.475 67.9655V130.326H351.569L351.577 67.9655H441.475Z" fill="#E7EBF6"/>
<path opacity="0.47" d="M444.089 133.911H348.682V64.697H444.089V133.911ZM351.662 130.6L441.488 130.326V67.9655L351.662 67.9986V130.6Z" fill="url(#paint11_linear_102_6687)"/>
<path opacity="0.47" d="M441.475 67.9655V130.326H351.569L351.577 67.9655H441.475Z" fill="url(#paint12_linear_102_6687)"/>
<path opacity="0.47" d="M398.176 116.434H437.014V109.268H398.176V116.434Z" fill="url(#paint13_linear_102_6687)"/>
<path opacity="0.47" d="M416.46 127.36H437.014V120.194H416.46V127.36Z" fill="url(#paint14_linear_102_6687)"/>
<path opacity="0.47" d="M396.226 77.7518H357.388V84.9178H396.226V77.7518Z" fill="url(#paint15_linear_102_6687)"/>
<path opacity="0.47" d="M377.942 88.6781H357.388V95.844H377.942V88.6781Z" fill="url(#paint16_linear_102_6687)"/>
<path opacity="0.43" d="M393.812 67.9655L377.844 130.326H364.11L380.079 67.9655H393.812Z" fill="white"/>
<path opacity="0.43" d="M420.573 67.9655L404.604 130.326H384.357L400.326 67.9655H420.573Z" fill="white"/>
<path d="M221.973 200.826C221.832 200.674 221.741 200.475 221.714 200.259C221.687 200.043 221.726 199.823 221.824 199.634C224.255 194.994 239.47 166.548 245.54 171.098C251.82 175.805 255.038 201.205 253.982 211.242C253.965 211.398 253.914 211.548 253.833 211.678C253.753 211.808 253.646 211.914 253.52 211.988C253.395 212.062 253.255 212.101 253.113 212.102C252.971 212.103 252.831 212.066 252.705 211.994C251.096 211.048 248.073 209.284 246.077 208.683C245.909 208.632 245.759 208.527 245.645 208.381C245.532 208.235 245.459 208.055 245.438 207.863C245.417 207.672 245.447 207.477 245.525 207.305C245.603 207.133 245.725 206.99 245.877 206.895H245.906C246.954 206.285 242.675 204.445 241.888 205.396C241.1 206.346 243.203 207.321 242.82 208.059C242.437 208.796 237.988 209.671 236.332 206.342C236.25 206.17 236.216 205.975 236.235 205.782C236.254 205.589 236.325 205.406 236.439 205.258C237.469 203.891 240.27 199.918 239.023 198.849C237.503 197.544 229.929 195.571 230.542 197.25C231.155 198.93 233.007 200.94 230.146 202.345C228.806 203.043 227.307 203.272 225.847 203.001C224.387 202.73 223.035 201.971 221.973 200.826Z" fill="#EE465E"/>
<path d="M239.338 179.12C237.89 182.096 236.481 185.099 235.136 188.131C234.467 189.649 233.807 191.168 233.203 192.714C233.045 193.098 232.905 193.485 232.777 193.869C232.65 194.252 232.492 194.639 232.352 195.027C232.211 195.415 232.092 195.808 231.994 196.191C231.951 196.328 231.917 196.465 231.888 196.593C231.206 196.56 230.713 196.631 230.551 196.863L230.653 196.413C230.708 196.193 230.778 195.978 230.862 195.77C230.998 195.344 231.151 194.947 231.317 194.554C231.483 194.162 231.645 193.774 231.819 193.391C231.994 193.008 232.16 192.625 232.339 192.251C233.05 190.742 233.808 189.261 234.574 187.795C236.106 184.863 237.703 182.001 239.338 179.12ZM239.291 199.369C239.262 199.154 239.158 198.96 239.001 198.83C238.782 198.646 238.547 198.487 238.299 198.357L242.475 184.64L239.291 199.369ZM243.003 205.131C242.809 205.079 242.607 205.075 242.411 205.117C242.215 205.159 242.029 205.248 241.866 205.377C241.775 205.478 241.715 205.609 241.696 205.75H241.624L244.719 192.946L243.003 205.131ZM244.868 205.675L246.358 188.33L246.047 206.597C245.991 206.313 245.498 205.963 244.868 205.675ZM246.043 206.928H245.83H245.859H245.889C245.959 206.897 246.015 206.838 246.047 206.762L246.043 206.928Z" fill="#C33D56"/>
</g>
<defs>
<linearGradient id="paint0_linear_102_6687" x1="130.099" y1="83.9008" x2="272.441" y2="83.9008" gradientUnits="userSpaceOnUse">
<stop stop-color="#5559FE" stop-opacity="0.31"/>
<stop offset="0.06" stop-color="#5665EF" stop-opacity="0.49"/>
<stop offset="0.13" stop-color="#566EE1" stop-opacity="0.65"/>
<stop offset="0.21" stop-color="#5776D6" stop-opacity="0.78"/>
<stop offset="0.3" stop-color="#577DCD" stop-opacity="0.88"/>
<stop offset="0.41" stop-color="#5881C7" stop-opacity="0.95"/>
<stop offset="0.57" stop-color="#5883C4" stop-opacity="0.99"/>
<stop offset="1" stop-color="#5884C3"/>
</linearGradient>
<linearGradient id="paint1_linear_102_6687" x1="130.099" y1="53.2457" x2="272.441" y2="53.2457" gradientUnits="userSpaceOnUse">
<stop stop-color="#5559FE" stop-opacity="0.31"/>
<stop offset="0.06" stop-color="#5665EF" stop-opacity="0.49"/>
<stop offset="0.13" stop-color="#566EE1" stop-opacity="0.65"/>
<stop offset="0.21" stop-color="#5776D6" stop-opacity="0.78"/>
<stop offset="0.3" stop-color="#577DCD" stop-opacity="0.88"/>
<stop offset="0.41" stop-color="#5881C7" stop-opacity="0.95"/>
<stop offset="0.57" stop-color="#5883C4" stop-opacity="0.99"/>
<stop offset="1" stop-color="#5884C3"/>
</linearGradient>
<linearGradient id="paint2_linear_102_6687" x1="130.099" y1="114.556" x2="272.441" y2="114.556" gradientUnits="userSpaceOnUse">
<stop stop-color="#5559FE" stop-opacity="0.31"/>
<stop offset="0.06" stop-color="#5665EF" stop-opacity="0.49"/>
<stop offset="0.13" stop-color="#566EE1" stop-opacity="0.65"/>
<stop offset="0.21" stop-color="#5776D6" stop-opacity="0.78"/>
<stop offset="0.3" stop-color="#577DCD" stop-opacity="0.88"/>
<stop offset="0.41" stop-color="#5881C7" stop-opacity="0.95"/>
<stop offset="0.57" stop-color="#5883C4" stop-opacity="0.99"/>
<stop offset="1" stop-color="#5884C3"/>
</linearGradient>
<linearGradient id="paint3_linear_102_6687" x1="65.2246" y1="107.224" x2="71.3166" y2="107.224" gradientUnits="userSpaceOnUse">
<stop stop-color="#5884C3" stop-opacity="0.5"/>
<stop offset="0.04" stop-color="#5680C0" stop-opacity="0.54"/>
<stop offset="0.28" stop-color="#4C6FB5" stop-opacity="0.74"/>
<stop offset="0.51" stop-color="#4562AD" stop-opacity="0.89"/>
<stop offset="0.75" stop-color="#415AA8" stop-opacity="0.97"/>
<stop offset="1" stop-color="#4058A6"/>
</linearGradient>
<linearGradient id="paint4_linear_102_6687" x1="77.7065" y1="105.403" x2="83.8028" y2="105.403" gradientUnits="userSpaceOnUse">
<stop stop-color="#5884C3" stop-opacity="0.5"/>
<stop offset="0.04" stop-color="#5680C0" stop-opacity="0.54"/>
<stop offset="0.28" stop-color="#4C6FB5" stop-opacity="0.74"/>
<stop offset="0.51" stop-color="#4562AD" stop-opacity="0.89"/>
<stop offset="0.75" stop-color="#415AA8" stop-opacity="0.97"/>
<stop offset="1" stop-color="#4058A6"/>
</linearGradient>
<linearGradient id="paint5_linear_102_6687" x1="90.1929" y1="107.201" x2="96.2848" y2="107.201" gradientUnits="userSpaceOnUse">
<stop stop-color="#5884C3" stop-opacity="0.5"/>
<stop offset="0.04" stop-color="#5680C0" stop-opacity="0.54"/>
<stop offset="0.28" stop-color="#4C6FB5" stop-opacity="0.74"/>
<stop offset="0.51" stop-color="#4562AD" stop-opacity="0.89"/>
<stop offset="0.75" stop-color="#415AA8" stop-opacity="0.97"/>
<stop offset="1" stop-color="#4058A6"/>
</linearGradient>
<linearGradient id="paint6_linear_102_6687" x1="102.679" y1="107.182" x2="108.771" y2="107.182" gradientUnits="userSpaceOnUse">
<stop stop-color="#5884C3" stop-opacity="0.5"/>
<stop offset="0.04" stop-color="#5680C0" stop-opacity="0.54"/>
<stop offset="0.28" stop-color="#4C6FB5" stop-opacity="0.74"/>
<stop offset="0.51" stop-color="#4562AD" stop-opacity="0.89"/>
<stop offset="0.75" stop-color="#415AA8" stop-opacity="0.97"/>
<stop offset="1" stop-color="#4058A6"/>
</linearGradient>
<linearGradient id="paint7_linear_102_6687" x1="115.161" y1="105.531" x2="121.257" y2="105.531" gradientUnits="userSpaceOnUse">
<stop stop-color="#5884C3" stop-opacity="0.5"/>
<stop offset="0.04" stop-color="#5680C0" stop-opacity="0.54"/>
<stop offset="0.28" stop-color="#4C6FB5" stop-opacity="0.74"/>
<stop offset="0.51" stop-color="#4562AD" stop-opacity="0.89"/>
<stop offset="0.75" stop-color="#415AA8" stop-opacity="0.97"/>
<stop offset="1" stop-color="#4058A6"/>
</linearGradient>
<linearGradient id="paint8_linear_102_6687" x1="38.3535" y1="305.033" x2="59.2944" y2="305.033" gradientUnits="userSpaceOnUse">
<stop stop-color="#5884C3"/>
<stop offset="0.15" stop-color="#5B86C4" stop-opacity="0.98"/>
<stop offset="0.29" stop-color="#658EC8" stop-opacity="0.92"/>
<stop offset="0.43" stop-color="#769ACE" stop-opacity="0.82"/>
<stop offset="0.57" stop-color="#8EACD6" stop-opacity="0.68"/>
<stop offset="0.72" stop-color="#ACC2E1" stop-opacity="0.5"/>
<stop offset="0.86" stop-color="#D1DDEF" stop-opacity="0.27"/>
<stop offset="0.99" stop-color="#FCFDFE" stop-opacity="0.02"/>
<stop offset="1" stop-color="white" stop-opacity="0"/>
</linearGradient>
<linearGradient id="paint9_linear_102_6687" x1="38.362" y1="345.517" x2="38.362" y2="306.968" gradientUnits="userSpaceOnUse">
<stop stop-color="white" stop-opacity="0.6"/>
<stop offset="0.02" stop-color="#F8FAFD" stop-opacity="0.62"/>
<stop offset="0.26" stop-color="#B2C6E3" stop-opacity="0.78"/>
<stop offset="0.5" stop-color="#80A1D1" stop-opacity="0.9"/>
<stop offset="0.75" stop-color="#628BC7" stop-opacity="0.98"/>
<stop offset="1" stop-color="#5884C3"/>
</linearGradient>
<linearGradient id="paint10_linear_102_6687" x1="190.231" y1="325.49" x2="226.522" y2="303.986" gradientUnits="userSpaceOnUse">
<stop stop-color="white" stop-opacity="0"/>
<stop offset="0.01" stop-color="#FCFDFE" stop-opacity="0.02"/>
<stop offset="0.14" stop-color="#D1DDEF" stop-opacity="0.27"/>
<stop offset="0.28" stop-color="#ACC2E1" stop-opacity="0.5"/>
<stop offset="0.43" stop-color="#8EACD6" stop-opacity="0.68"/>
<stop offset="0.57" stop-color="#769ACE" stop-opacity="0.82"/>
<stop offset="0.71" stop-color="#658EC8" stop-opacity="0.92"/>
<stop offset="0.85" stop-color="#5B86C4" stop-opacity="0.98"/>
<stop offset="1" stop-color="#5884C3"/>
</linearGradient>
<linearGradient id="paint11_linear_102_6687" x1="444.089" y1="99.297" x2="348.682" y2="99.297" gradientUnits="userSpaceOnUse">
<stop stop-color="#4058A6"/>
<stop offset="0.25" stop-color="#415AA8" stop-opacity="0.97"/>
<stop offset="0.49" stop-color="#4562AD" stop-opacity="0.89"/>
<stop offset="0.72" stop-color="#4C6FB5" stop-opacity="0.74"/>
<stop offset="0.96" stop-color="#5680C0" stop-opacity="0.54"/>
<stop offset="1" stop-color="#5884C3" stop-opacity="0.5"/>
</linearGradient>
<linearGradient id="paint12_linear_102_6687" x1="351.569" y1="99.1456" x2="441.475" y2="99.1456" gradientUnits="userSpaceOnUse">
<stop stop-color="#F2BA34"/>
<stop offset="0.13" stop-color="#F2BB37" stop-opacity="0.98"/>
<stop offset="0.26" stop-color="#F3BE41" stop-opacity="0.94"/>
<stop offset="0.39" stop-color="#F4C452" stop-opacity="0.85"/>
<stop offset="0.52" stop-color="#F5CC69" stop-opacity="0.74"/>
<stop offset="0.64" stop-color="#F7D686" stop-opacity="0.59"/>
<stop offset="0.77" stop-color="#FAE2AB" stop-opacity="0.41"/>
<stop offset="0.89" stop-color="#FCF1D5" stop-opacity="0.21"/>
<stop offset="1" stop-color="white" stop-opacity="0"/>
</linearGradient>
<linearGradient id="paint13_linear_102_6687" x1="437.014" y1="112.853" x2="398.172" y2="112.853" gradientUnits="userSpaceOnUse">
<stop stop-color="#4058A6"/>
<stop offset="0.25" stop-color="#415AA8" stop-opacity="0.97"/>
<stop offset="0.49" stop-color="#4562AD" stop-opacity="0.89"/>
<stop offset="0.72" stop-color="#4C6FB5" stop-opacity="0.74"/>
<stop offset="0.96" stop-color="#5680C0" stop-opacity="0.54"/>
<stop offset="1" stop-color="#5884C3" stop-opacity="0.5"/>
</linearGradient>
<linearGradient id="paint14_linear_102_6687" x1="437.014" y1="123.779" x2="416.456" y2="123.779" gradientUnits="userSpaceOnUse">
<stop stop-color="#4058A6"/>
<stop offset="0.25" stop-color="#415AA8" stop-opacity="0.97"/>
<stop offset="0.49" stop-color="#4562AD" stop-opacity="0.89"/>
<stop offset="0.72" stop-color="#4C6FB5" stop-opacity="0.74"/>
<stop offset="0.96" stop-color="#5680C0" stop-opacity="0.54"/>
<stop offset="1" stop-color="#5884C3" stop-opacity="0.5"/>
</linearGradient>
<linearGradient id="paint15_linear_102_6687" x1="357.388" y1="81.3324" x2="396.226" y2="81.3324" gradientUnits="userSpaceOnUse">
<stop stop-color="#4058A6"/>
<stop offset="0.25" stop-color="#415AA8" stop-opacity="0.97"/>
<stop offset="0.49" stop-color="#4562AD" stop-opacity="0.89"/>
<stop offset="0.72" stop-color="#4C6FB5" stop-opacity="0.74"/>
<stop offset="0.96" stop-color="#5680C0" stop-opacity="0.54"/>
<stop offset="1" stop-color="#5884C3" stop-opacity="0.5"/>
</linearGradient>
<linearGradient id="paint16_linear_102_6687" x1="357.388" y1="92.2587" x2="377.942" y2="92.2587" gradientUnits="userSpaceOnUse">
<stop stop-color="#4058A6"/>
<stop offset="0.25" stop-color="#415AA8" stop-opacity="0.97"/>
<stop offset="0.49" stop-color="#4562AD" stop-opacity="0.89"/>
<stop offset="0.72" stop-color="#4C6FB5" stop-opacity="0.74"/>
<stop offset="0.96" stop-color="#5680C0" stop-opacity="0.54"/>
<stop offset="1" stop-color="#5884C3" stop-opacity="0.5"/>
</linearGradient>
<clipPath id="clip0_102_6687">
<rect width="472" height="329" fill="white"/>
</clipPath>
</defs>
</svg>
